<?xml version="1.0" encoding="UTF-8"?><svg id="Layer_2" xmlns="http://www.w3.org/2000/svg" viewBox="0 0 338.3 62.67"><g id="Layer_23"><g><rect x="0" y="4.74" width="338.3" height="57.93" rx="28.97" ry="28.97" style="fill:#3b1b64;"/><rect x="0" y="0" width="338.3" height="57.93" rx="28.97" ry="28.97" style="fill:#753bbb;"/><g><path d="M108.43,21.45h-6.53v17.77h-4.39V21.45h-6.45v-3.56h17.37v3.56Z" style="fill:#fff;"/><path d="M117.38,39.22c-.2-.38-.34-.85-.42-1.42-1.03,1.14-2.36,1.71-4,1.71-1.55,0-2.84-.45-3.86-1.35s-1.53-2.03-1.53-3.4c0-1.68,.62-2.97,1.87-3.87s3.04-1.35,5.4-1.36h1.95v-.91c0-.73-.19-1.32-.56-1.76s-.97-.66-1.78-.66c-.71,0-1.27,.17-1.68,.51s-.61,.81-.61,1.41h-4.23c0-.92,.28-1.77,.85-2.55s1.37-1.39,2.4-1.84,2.2-.67,3.49-.67c1.95,0,3.5,.49,4.65,1.47s1.72,2.36,1.72,4.14v6.87c0,1.5,.22,2.64,.63,3.41v.25h-4.28Zm-3.5-2.94c.62,0,1.2-.14,1.73-.42s.92-.65,1.17-1.12v-2.72h-1.58c-2.12,0-3.25,.73-3.38,2.2v.25c-.01,.53,.17,.96,.54,1.3s.88,.51,1.52,.51Z" style="fill:#fff;"/><path d="M138.55,31.44c0,2.44-.55,4.4-1.66,5.87s-2.6,2.2-4.49,2.2c-1.6,0-2.9-.56-3.88-1.67v7.47h-4.23V23.37h3.93l.15,1.55c1.03-1.23,2.36-1.85,4.01-1.85,1.95,0,3.47,.72,4.56,2.17s1.63,3.44,1.63,5.98v.22Zm-4.23-.31c0-1.47-.26-2.61-.78-3.41s-1.28-1.2-2.28-1.2c-1.33,0-2.24,.51-2.74,1.52v6.49c.52,1.04,1.44,1.57,2.77,1.57,2.02,0,3.03-1.66,3.03-4.97Z" style="fill:#fff;"/><path d="M153.71,19.48v3.9h2.71v3.11h-2.71v7.91c0,.59,.11,1.01,.34,1.26s.65,.38,1.29,.38c.47,0,.88-.03,1.25-.1v3.21c-.83,.25-1.68,.38-2.56,.38-2.97,0-4.48-1.5-4.54-4.5v-8.54h-2.31v-3.11h2.31v-3.9h4.23Z" style="fill:#fff;"/><path d="M157.68,31.15c0-1.57,.3-2.97,.91-4.2s1.48-2.18,2.61-2.86,2.46-1.01,3.96-1.01c2.14,0,3.88,.65,5.24,1.96s2.11,3.09,2.26,5.33l.03,1.08c0,2.43-.68,4.38-2.04,5.85s-3.18,2.2-5.46,2.2-4.11-.73-5.47-2.2-2.04-3.46-2.04-5.98v-.19Zm4.23,.3c0,1.51,.28,2.66,.85,3.46s1.38,1.2,2.43,1.2,1.83-.39,2.4-1.18,.86-2.05,.86-3.78c0-1.48-.29-2.62-.86-3.43s-1.39-1.22-2.43-1.22-1.84,.4-2.4,1.21c-.57,.81-.85,2.06-.85,3.75Z" style="fill:#fff;"/><path d="M194.11,33.63c0-.83-.29-1.47-.88-1.91s-1.64-.91-3.16-1.41-2.73-.98-3.62-1.46c-2.42-1.31-3.63-3.07-3.63-5.29,0-1.15,.32-2.18,.97-3.08s1.58-1.61,2.8-2.12,2.58-.76,4.09-.76,2.88,.28,4.07,.83,2.12,1.33,2.78,2.34,.99,2.15,.99,3.43h-4.39c0-.98-.31-1.74-.92-2.28s-1.48-.81-2.59-.81-1.91,.23-2.5,.68-.89,1.05-.89,1.79c0,.69,.35,1.27,1.05,1.74s1.73,.91,3.08,1.32c2.5,.75,4.32,1.68,5.46,2.8s1.71,2.5,1.71,4.16c0,1.85-.7,3.29-2.09,4.34s-3.28,1.57-5.64,1.57c-1.64,0-3.13-.3-4.48-.9s-2.38-1.42-3.08-2.47-1.06-2.26-1.06-3.63h4.41c0,2.35,1.41,3.53,4.22,3.53,1.04,0,1.86-.21,2.45-.64s.88-1.02,.88-1.78Z" style="fill:#fff;"/><path d="M215.48,31.44c0,2.44-.55,4.4-1.66,5.87s-2.6,2.2-4.49,2.2c-1.6,0-2.9-.56-3.88-1.67v7.47h-4.23V23.37h3.93l.15,1.55c1.03-1.23,2.36-1.85,4.01-1.85,1.95,0,3.47,.72,4.56,2.17s1.63,3.44,1.63,5.98v.22Zm-4.23-.31c0-1.47-.26-2.61-.78-3.41s-1.28-1.2-2.28-1.2c-1.33,0-2.24,.51-2.74,1.52v6.49c.52,1.04,1.44,1.57,2.77,1.57,2.02,0,3.03-1.66,3.03-4.97Z" style="fill:#fff;"/><path d="M218.07,19.27c0-.63,.21-1.16,.64-1.57s1-.62,1.74-.62,1.3,.21,1.73,.62,.64,.93,.64,1.57-.22,1.17-.65,1.58-1.01,.62-1.72,.62-1.29-.21-1.72-.62-.65-.94-.65-1.58Zm4.5,19.95h-4.25v-15.85h4.25v15.85Z" style="fill:#fff;"/><path d="M229.95,23.37l.13,1.83c1.13-1.42,2.65-2.12,4.56-2.12,1.68,0,2.93,.49,3.75,1.48s1.24,2.46,1.26,4.42v10.24h-4.23v-10.14c0-.9-.2-1.55-.59-1.96s-1.04-.61-1.95-.61c-1.19,0-2.08,.51-2.68,1.52v11.18h-4.23v-15.85h3.98Z" style="fill:#fff;"/></g></g></g></svg>