<?xml version="1.0" encoding="UTF-8"?><svg id="Layer_2" xmlns="http://www.w3.org/2000/svg" xmlns:xlink="http://www.w3.org/1999/xlink" viewBox="0 0 314.43 506.26"><defs><linearGradient id="linear-gradient" x1="279.6" y1="132.41" x2="159.77" y2="154.33" gradientUnits="userSpaceOnUse"><stop offset="0" stop-color="#feeb68" stop-opacity="0"/><stop offset="1" stop-color="#feeb68"/></linearGradient><linearGradient id="linear-gradient-2" x1="225.25" y1="54.37" x2="161.45" y2="145.49" gradientUnits="userSpaceOnUse"><stop offset="0" stop-color="#fff" stop-opacity="0"/><stop offset="1" stop-color="#feeb68"/></linearGradient><linearGradient id="linear-gradient-3" x1="133.17" y1="37.05" x2="152.52" y2="136.72" gradientUnits="userSpaceOnUse"><stop offset="0" stop-color="#e2e2e2" stop-opacity="0"/><stop offset="1" stop-color="#feeb68"/></linearGradient><linearGradient id="linear-gradient-4" x1="52.09" y1="86.17" x2="157.04" y2="153.17" xlink:href="#linear-gradient-2"/><linearGradient id="linear-gradient-5" x1="37.6" y1="181.44" x2="151.19" y2="160.4" xlink:href="#linear-gradient-2"/><linearGradient id="linear-gradient-6" x1="91.91" y1="257.3" x2="157.41" y2="167.39" xlink:href="#linear-gradient-2"/><linearGradient id="linear-gradient-7" x1="182.16" y1="276.1" x2="164.32" y2="163.69" xlink:href="#linear-gradient-2"/><linearGradient id="linear-gradient-8" x1="259.68" y1="225.56" x2="161.17" y2="158.81" xlink:href="#linear-gradient-2"/><linearGradient id="linear-gradient-9" x1="-7572.41" y1="688.74" x2="-7574.01" y2="649.21" gradientTransform="translate(6903.31 -3276.95) rotate(-21.66)" gradientUnits="userSpaceOnUse"><stop offset="0" stop-color="#00b7ec"/><stop offset="1" stop-color="#333da0"/></linearGradient></defs><g id="Layer_1-2"><g><rect x="19.91" y="166.78" width="280" height="339.48" rx="22.8" ry="22.8" style="fill:#fed629;"/><path d="M299.91,189.58c0-12.59-10.21-22.8-22.8-22.8h-90.6L19.91,408.66v74.8c0,12.59,10.21,22.8,22.8,22.8h42.98L299.91,195.23v-5.65Z" style="fill:#feeb68;"/><polygon points="145.84 506.26 299.91 282.56 299.91 219.25 102.24 506.26 145.84 506.26" style="fill:#feeb68;"/><rect x="31.84" y="176.88" width="256.15" height="319" rx="22.8" ry="22.8" style="fill:#efab11;"/><rect x="38.71" y="186.09" width="241.58" height="300.86" rx="22.8" ry="22.8" style="fill:#efab11;"/><g style="opacity:.38;"><path d="M157.22,157.22l145.25-60.16c3.94,9.51,6.94,19.39,8.95,29.49,2.01,10.1,3.02,20.37,3.02,30.67H157.22Z" style="fill:url(#linear-gradient);"/><path d="M157.22,157.22L217.47,12.01c9.51,3.95,18.61,8.82,27.17,14.55,8.56,5.73,16.53,12.28,23.81,19.57l-111.24,111.1Z" style="fill:url(#linear-gradient-2);"/><path d="M157.22,157.22L97.05,11.97c9.51-3.94,19.39-6.94,29.49-8.95s20.37-3.02,30.67-3.02V157.22Z" style="fill:url(#linear-gradient-3);"/><path d="M157.22,157.22L12.01,96.96c3.95-9.51,8.82-18.61,14.55-27.17,5.73-8.56,12.28-16.53,19.57-23.81l111.1,111.24Z" style="fill:url(#linear-gradient-4);"/><path d="M157.22,157.22L11.97,217.38c-3.94-9.51-6.94-19.39-8.95-29.49-2.01-10.1-3.02-20.37-3.02-30.67H157.22Z" style="fill:url(#linear-gradient-5);"/><path d="M157.22,157.22l-60.26,145.21c-9.51-3.95-18.61-8.82-27.17-14.55-8.56-5.73-16.53-12.28-23.81-19.57l111.24-111.1Z" style="fill:url(#linear-gradient-6);"/><path d="M157.22,157.22l60.16,145.25c-9.51,3.94-19.39,6.94-29.49,8.95-10.1,2.01-20.37,3.02-30.67,3.02V157.22Z" style="fill:url(#linear-gradient-7);"/><path d="M157.22,157.22l145.21,60.26c-3.95,9.51-8.82,18.61-14.55,27.17-5.73,8.56-12.28,16.53-19.57,23.81l-111.1-111.24Z" style="fill:url(#linear-gradient-8);"/></g><g><g><circle cx="187.04" cy="119.58" r="36.34" style="fill:#8061b8;"/><path d="M223.23,122.66c-9.33-7.74-21.31-12.39-34.38-12.39-14.64,0-27.9,5.86-37.62,15.33,2.87,17.2,17.79,30.33,35.81,30.33,19.03,0,34.63-14.64,36.19-33.27Z" style="fill:#5b4198;"/><circle cx="187.04" cy="120.11" r="29.96" style="fill:#ac8fd3;"/><path d="M157.1,120.68c.31,16.28,13.58,29.39,29.94,29.39s29.96-13.42,29.96-29.96c0-.64-.06-1.27-.1-1.9-8.18-5-17.76-7.94-28.06-7.94-11.89,0-22.84,3.89-31.75,10.41Z" style="fill:#c2aee1;"/><circle cx="187.04" cy="120.11" r="29.96" style="fill:none; stroke:#fff; stroke-miterlimit:10; stroke-width:.5px;"/><path d="M203.92,116.18h-2.42c.38-1.58,.42-3.22,.11-4.82h2.31c.89,0,1.61-.72,1.61-1.61s-.72-1.61-1.61-1.61h-3.41c-2.01-3.94-6.06-6.42-10.48-6.42h-10.18c-.89,0-1.61,.72-1.61,1.61v4.82h-3.21c-.89,0-1.61,.72-1.61,1.61s.72,1.61,1.61,1.61h3.21v4.82h-3.21c-.89,0-1.61,.72-1.61,1.61s.72,1.61,1.61,1.61h3.21v22.48c0,.89,.72,1.61,1.61,1.61s1.61-.72,1.61-1.61v-16.56h8.58c4.22,0,8.11-2.26,10.21-5.92h3.69c.89,0,1.61-.72,1.61-1.61s-.72-1.61-1.61-1.61Zm-22.48-11.24h8.58c2.6,0,5.06,1.18,6.68,3.21h-15.26v-3.21Zm0,6.42h16.87c.42,1.58,.38,3.26-.14,4.82h-16.73v-4.82Zm8.58,10.74h-8.58v-2.71h14.82c-1.62,1.73-3.88,2.71-6.24,2.71Z" style="fill:#fff;"/><path d="M178.23,111.37v4.81h-3.21c-.89,0-1.61,.72-1.61,1.61s.72,1.61,1.61,1.61h3.21v22.48c0,.89,.72,1.61,1.61,1.61s1.61-.72,1.61-1.61v-16.56h8.58c4.22,0,8.11-2.26,10.21-5.92h3.69c.89,0,1.61-.72,1.61-1.61s-.72-1.61-1.61-1.61h-2.42c.34-1.42,.36-2.88,.15-4.33-4.1-1.01-8.38-1.58-12.79-1.58-3.64,0-7.18,.41-10.62,1.1Zm11.79,10.73h-8.58v-2.71h14.82c-1.62,1.73-3.88,2.71-6.24,2.71Zm8.15-5.92h-16.73v-4.82h16.87c.42,1.58,.38,3.26-.14,4.82Z" style="fill:#f1f1f1;"/></g><g><rect x="61.83" y="37.78" width="183.81" height="170" style="fill:none;"/><g><g><g><path d="M169.86,161.55l1.84,5.87c1.03,3.29-1.76,6.75-5.27,6.53l-2.21-.14c-.02,.26-.05,.5-.09,.72-.08,.45-.49,.78-.94,.77-.06,0-.12,0-.17-.02l-10.08-2.18-12.43-.78c-2.21-.14-3.95-1.75-4.23-3.91l-.21-1.56c-.37-2.78,1.75-5.42,4.6-5.73l24.28-2.68c2.23-.25,4.26,1.04,4.91,3.12Z" style="fill:#ecebeb;"/><path d="M150.3,173.4l-9.58,.9c-2.36-.15-4.69-3.39-5-5.71l-.22-1.67c-.39-2.97,1.87-5.8,4.92-6.14l10.38-1.15-.51,13.77Z" style="fill:#563885;"/></g><path d="M166.35,163.17c-.2-.25,1.25-1.24,.98-2.29-.19-.7-.84-1.02-1.07-1.14-1.18-.58-2.55-.17-3.07,0-5.33,1.71-8.73,3.59-9.31,2.99-.32-.33,.03-1.67,.93-3.18l10.15-1.12c2.23-.25,4.26,1.04,4.91,3.12v.04c-2.11,.91-3.33,1.81-3.51,1.58Z" style="fill:#bebebe; opacity:.5;"/><path d="M171.7,167.42c.06,.2,.11,.4,.14,.6-.51,.17-1.09,.29-1.67,.4-1.01,.2-1.93,.19-1.95,.05-.02-.13,.81-.18,1.46-.84,.71-.72,.73-1.69,.73-1.81,0-1.36-1.13-2.11-1.25-2.19-1.2-.76-2.58-.22-2.64-.5-.06-.3,1.43-1.37,2.94-1.25,.17,.01,.34,.05,.51,.09l1.71,5.46Z" style="fill:#bebebe; opacity:.5;"/><path d="M169,163.09c-1.86-.21-3.57,.92-5.06,1.97,1.33-1.55,2.74-3.09,4.8-3.75,1.4-.42,1.72,1.79,.26,1.78h0Z" style="fill:#bebebe;"/><path d="M166.43,173.95l-2.21-.14c0,.09-.02,.17-.03,.25-.49-.61-.67-1.13-.39-.95,1.28,.84,2.89,.49,3.07,.44,.4-.09,2.11-.49,2.68-1.86,.06-.15,.35-.84,.1-1.51-.32-.87-1.26-1-1.18-1.34,.11-.48,2.1-.52,2.35-.53,.4,0,.75-.01,1.06,0,.33,2.99-2.27,5.83-5.46,5.63Z" style="fill:#bebebe; opacity:.5;"/><path d="M171.09,169.27c-2.29,.37-4.47-.33-6.56-1.1,1.94,.14,4.23,.57,5.91-.57,1.31-.83,2.18,1.39,.65,1.68h0Z" style="fill:#bebebe;"/></g><path d="M149.6,182.79l.68,22.25h9.74s1.56-2.76,2.21-4.6,3.49-8.55,4.23-11.49,1.65-10.57,1.65-10.57l-18.51,1.47v2.94Z" style="fill:#fff;"/><path d="M149.6,182.79l.68,22.25h9.74s1.56-2.76,2.21-4.6,3.49-8.55,4.23-11.49,1.65-10.57,1.65-10.57l-18.51,1.47v2.94Z" style="fill:#bbb; opacity:.5;"/><path d="M163.98,178.66v26.38h8.55c1.46-1.1,2.71-2.25,3.77-3.4,6.12-6.63,10.02-20.59,8-30.06-1.43-6.68-4.16-10.41-7.16-13.01l-13.15,20.09Z" style="fill:#fff;"/><path d="M138.65,162.94c-.76,2.42,.75,6.03,3.77,13.24,2.16,5.15,3.28,7.76,5.06,9.19,4.64,3.74,11.01,2.69,13.05,2.3,9.34-1.77,14.02-6.11,16.13-9.29,2.68-4.03,3.77-8.58,2.81-13.88-1.09-6.02-5.56-9.21-7.17-10.02-7.44-3.76-16.83-3.17-22.34-1.47-5.83,1.8-9.86,5.35-11.31,9.93Z" style="fill:#753bbb;"/><circle cx="145.66" cy="160.75" r="6.87" style="fill:#ecebeb; stroke:#3a8bdc; stroke-miterlimit:10; stroke-width:2.2px;"/><g><path d="M157.35,173.6c-.15-.17-.32-.34-.49-.49l1.03-1.21c.23,.2,.45,.42,.65,.64l-1.2,1.05Zm-1.08-.92c-.19-.12-.4-.23-.61-.32l.64-1.46c.28,.12,.55,.27,.81,.43l-.84,1.35Zm-1.3-.57c-.22-.06-.45-.11-.68-.13l.2-1.58c.3,.04,.6,.1,.9,.18l-.42,1.53Z" style="fill:#5d3389;"/><path d="M156.54,174.73c1.15,1.57,.81,3.77-.76,4.92-1.57,1.15-3.77,.81-4.92-.76-1.15-1.57-.81-3.77,.77-4.92,1.57-1.15,3.77-.81,4.92,.77" style="fill:#5d3389;"/><path d="M158.58,177.55l1.35,.62c.25-1.14,.19-2.37-.24-3.55-.11-.3-.24-.58-.38-.85l-1.26,.7c.11,.2,.21,.42,.29,.64,.29,.81,.37,1.64,.25,2.43" style="fill:#5d3389;"/><path d="M157.29,180.2c-.51,.54-1.15,.98-1.9,1.25-2.56,.94-5.4-.38-6.33-2.94s.38-5.4,2.94-6.33c.39-.14,.78-.23,1.18-.27l-.13-1.43c-.52,.05-1.04,.17-1.55,.36-3.31,1.21-5.01,4.87-3.8,8.18s4.87,5.01,8.18,3.8c1.12-.41,2.06-1.11,2.76-1.97l-1.36-.63Z" style="fill:#5d3389;"/><rect x="157.21" y="175.36" width="1.44" height="7.03" transform="translate(-70.82 246.78) rotate(-65.09)" style="fill:#5d3389;"/></g><g><path d="M156.77,173.06c-.15-.17-.32-.34-.49-.49l1.03-1.21c.23,.2,.45,.42,.65,.64l-1.2,1.05Zm-1.08-.92c-.19-.12-.4-.23-.61-.32l.64-1.46c.28,.12,.55,.27,.81,.43l-.84,1.35Zm-1.3-.57c-.22-.06-.45-.11-.68-.13l.2-1.58c.3,.04,.6,.1,.9,.18l-.42,1.53Z" style="fill:#3a8bdc;"/><path d="M155.96,174.2c1.15,1.57,.81,3.77-.76,4.92-1.57,1.15-3.77,.81-4.92-.76-1.15-1.57-.81-3.77,.77-4.92,1.57-1.15,3.77-.81,4.92,.77" style="fill:#3a8bdc;"/><path d="M158,177.02l1.35,.62c.25-1.14,.19-2.37-.24-3.55-.11-.3-.24-.58-.38-.85l-1.26,.7c.11,.2,.21,.42,.29,.64,.29,.81,.37,1.64,.25,2.43" style="fill:#fff;"/><path d="M156.71,179.67c-.51,.54-1.15,.98-1.9,1.25-2.56,.94-5.4-.38-6.33-2.94s.38-5.4,2.94-6.33c.39-.14,.78-.23,1.18-.27l-.13-1.43c-.52,.05-1.04,.17-1.55,.36-3.31,1.21-5.01,4.87-3.8,8.18s4.87,5.01,8.18,3.8c1.12-.41,2.06-1.11,2.76-1.97l-1.36-.63Z" style="fill:#fff;"/><rect x="156.63" y="174.82" width="1.44" height="7.03" transform="translate(-70.67 245.95) rotate(-65.09)" style="fill:#3a8bdc;"/></g><g><path d="M187.37,151.8l1.84,5.87c1.03,3.29-1.76,6.75-5.27,6.53l-2.21-.14c-.02,.26-.05,.5-.09,.72-.08,.45-.49,.78-.94,.77-.06,0-.12,0-.17-.02l-10.08-2.18-12.43-.78c-2.21-.14-3.95-1.75-4.23-3.91l-.21-1.56c-.37-2.78,1.75-5.42,4.6-5.73l24.28-2.68c2.23-.25,4.26,1.04,4.91,3.12Z" style="fill:#fff;"/><path d="M183.86,153.42c-.2-.25,1.25-1.24,.98-2.29-.19-.7-.84-1.02-1.07-1.14-1.18-.58-2.55-.17-3.07,0-5.33,1.71-13.01,4.06-13.58,3.46-.32-.33,.03-1.67,.93-3.18l14.43-1.59c2.23-.25,4.26,1.04,4.91,3.12v.04c-2.11,.91-3.33,1.81-3.51,1.58Z" style="fill:#bebebe; opacity:.5;"/><path d="M189.22,157.67c.06,.2,.11,.4,.14,.6-.51,.17-1.09,.29-1.67,.4-1.01,.2-1.93,.19-1.95,.05-.02-.13,.81-.18,1.46-.84,.71-.72,.73-1.69,.73-1.81,0-1.36-1.13-2.11-1.25-2.19-1.2-.76-2.58-.22-2.64-.5-.06-.3,1.43-1.37,2.94-1.25,.17,.01,.34,.05,.51,.09l1.71,5.46Z" style="fill:#bebebe; opacity:.5;"/><path d="M186.51,153.34c-1.86-.21-3.57,.92-5.06,1.97,1.33-1.55,2.74-3.09,4.8-3.75,1.4-.42,1.72,1.79,.26,1.78h0Z" style="fill:#bebebe;"/><path d="M183.94,164.2l-2.21-.14c0,.09-.02,.17-.03,.25-.49-.61-.67-1.13-.39-.95,1.28,.84,2.89,.49,3.07,.44,.4-.09,2.11-.49,2.68-1.86,.06-.15,.35-.84,.1-1.51-.32-.87-1.26-1-1.18-1.34,.11-.48,2.1-.52,2.35-.53,.4,0,.75-.01,1.06,0,.33,2.99-2.27,5.83-5.46,5.63Z" style="fill:#bebebe; opacity:.5;"/><path d="M188.61,159.52c-2.29,.37-4.47-.33-6.56-1.1,1.94,.14,4.23,.57,5.91-.57,1.31-.83,2.18,1.39,.65,1.68h0Z" style="fill:#bebebe;"/></g><path d="M167.82,163.65l-9.58,.9c-2.36-.15-4.69-3.39-5-5.71l-.22-1.67c-.39-2.97,1.87-5.8,4.92-6.14l10.38-1.15-.51,13.77Z" style="fill:#804cd1;"/><g><g><path d="M113.69,140.51c.2-11.73,2.26-20.82,4.14-26.99,2-6.55,5.65-11.25,9.95-11.37,2.55-.07,3.77-.87,6.54,2.68,3.58,4.58,5.37,9.04,6.28,11.84l-26.93,23.83Z" style="fill:#006fa0;"/><path d="M113.69,140.51c.2-11.73,2.26-20.82,4.14-26.99,2-6.55,5.65-11.25,9.95-11.37,2.55-.07,3.77-.87,6.54,2.68,3.58,4.58,5.37,9.04,6.28,11.84l-26.93,23.83Z" style="fill:#411468; opacity:.51;"/><path d="M147.62,158.68l-12.13,8.39c-9.88,6.84-23.11,4.54-29.54-5.13l-5.72-8.6c-7.64-11.48-4.31-27.36,7.42-35.47l5.44-3.76c11.73-8.11,27.43-5.39,35.07,6.09l5.72,8.6c6.43,9.67,3.63,23.05-6.25,29.89Z" style="fill:#0083cd;"/><ellipse cx="118.7" cy="143.77" rx="29.58" ry="27.86" transform="translate(-32.62 34.86) rotate(-14.71)" style="fill:#0083cd;"/><path d="M154.81,129.33l-6.01-8.47c-.63-.89-1.31-1.74-2.03-2.53-4.15-5.11-10.05-8.11-16.31-8.76-5.37-.74-10.85,.26-15.48,3.25l-3.84,2.47c-1.7-2.18-4.07-4.76-7.3-7.16-3.61-2.69-6.5-4.86-8.95-4.11-4.12,1.25-8.3,33.65-5.42,45.02l.1-.13c.14,.85,.32,1.69,.55,2.54,3.92,14.55,19.37,23.1,34.83,19.47,3.63-.33,7.26-1.58,10.52-3.84l11.54-7.98c-.31,.35-.64,.7-.98,1.03l4.74-3.06c8.98-5.79,10.77-18.2,4.02-27.73Z" style="fill:#0083cd;"/><path d="M154.81,129.33l-6.01-8.47c-.63-.89-1.31-1.74-2.03-2.53-4.15-5.11-10.05-8.11-16.31-8.76-5.37-.74-10.85,.26-15.48,3.25l-3.84,2.47c-1.7-2.18-4.07-4.76-7.3-7.16-3.61-2.69-6.5-4.86-8.95-4.11-4.12,1.25-8.3,33.65-5.42,45.02l.1-.13c.14,.85,.32,1.69,.55,2.54,3.92,14.55,19.37,23.1,34.83,19.47,3.63-.33,7.26-1.58,10.52-3.84l11.54-7.98c-.31,.35-.64,.7-.98,1.03l4.74-3.06c8.98-5.79,10.77-18.2,4.02-27.73Z" style="fill:#411468; opacity:.51;"/><path d="M113.24,113.94l-2.1,1.35c-.17-.22-.36-.45-.55-.69-14.76,4.43-23.73,19.27-21.03,34.31h.01c.1,.61,.23,1.24,.38,1.87,.06,.23,.11,.45,.17,.68,3.93,14.53,19.38,23.07,34.82,19.45,3.63-.33,7.26-1.58,10.52-3.84l8.63-5.97c4.97-7.1,6.87-16.27,4.43-25.31-4.2-15.58-19.75-25.05-35.3-21.86Z" style="fill:#0083cd;"/><path d="M106.05,118.05c-7.33,1.97-13.3,6.48-17.22,12.33-.51,7.34-.41,14.44,.66,18.66l.1-.13c.14,.85,.32,1.69,.55,2.54,3.92,14.55,19.37,23.1,34.83,19.47,3.63-.33,7.26-1.58,10.52-3.84l3.15-2.18c5.02-7.11,6.95-16.33,4.51-25.41-4.36-16.17-20.97-25.77-37.09-21.44Z" style="fill:#0083cd;"/><path d="M89.49,149.04c-2.88-11.37,1.3-43.77,5.42-45.02,2.44-.74,5.34,1.42,8.95,4.11,4.66,3.48,7.55,7.31,9.17,9.78l-23.53,31.13Z" style="fill:#0087e6;"/><circle cx="140.36" cy="118.17" r=".93" transform="translate(-33.7 60.14) rotate(-21.66)" style="fill:#fff;"/><ellipse cx="115.97" cy="130.02" rx="1.28" ry="1.29" transform="translate(-39.79 51.97) rotate(-21.66)" style="fill:#fff;"/><path d="M118.03,111.32c-.75,.29-1.49,.63-2.21,1.01-.22,.13-.44,.26-.66,.4l-3.84,2.47s-.03-.04-.04-.06l-.92,.6c-1.06-1.36-2.38-2.87-4-4.4-.91,.16-1.82,.37-2.72,.61-5.1,1.37-9.62,3.87-13.41,7.21-1.57,10.4-2.18,23.4-.56,29.78l.1-.13c.14,.85,.32,1.69,.55,2.54,3.92,14.55,19.37,23.1,34.83,19.47,2.78-.25,5.56-1.05,8.18-2.43,.46-.27,.92-.56,1.37-.88l11.54-7.98c-.11,.12-.22,.24-.33,.36l1.3-.9c-.24,.27-.49,.53-.75,.79l3.54-2.28c.31-.2,.6-.4,.89-.62,.41-4.94-.02-10.1-1.4-15.24-4.39-16.29-17.12-27.85-31.46-30.33Z" style="fill:#3b1b64;"/><path d="M115.8,112.32c-.27,.16-.55,.33-.82,.5l-3.84,2.47c-.9-1.16-2-2.43-3.31-3.73-2.6,.06-5.22,.43-7.83,1.13-3.49,.94-6.7,2.41-9.6,4.31-1.83,10.71-2.66,25.19-.92,32.04l.1-.13c.14,.85,.32,1.69,.55,2.54,3.92,14.55,19.37,23.1,34.83,19.47,3.63-.33,7.26-1.58,10.52-3.84l11.54-7.98c-.31,.35-.64,.7-.98,1.03l1.03-.66c.7-5.49,.35-11.28-1.21-17.07-4.25-15.76-16.3-27.1-30.07-30.06Z" style="fill:#36bbff;"/><path d="M147.08,159.45c.7-5.49,.35-11.28-1.21-17.07-4.25-15.76-16.3-27.1-30.07-30.06-.27,.16-.55,.33-.82,.5l-3.84,2.47c-.11-.14-.22-.29-.34-.43-.02-.03-.04-.05-.06-.08-.1-.12-.2-.24-.3-.37-.02-.02-.04-.05-.06-.07-.11-.13-.22-.26-.33-.39-.01-.01-.02-.03-.04-.04-.12-.14-.24-.28-.37-.43,0,0-.01-.01-.02-.02-.13-.15-.27-.3-.41-.46,0,0,0,0,0,0-.43-.47-.89-.96-1.39-1.44-2.6,.06-5.22,.43-7.83,1.13-3.49,.94-6.7,2.41-9.6,4.31-.29,1.67-.55,3.43-.78,5.24,0,.01,0,.02,0,.03-.05,.36-.09,.71-.13,1.07,0,0,0,0,0,0-.13,1.09-.25,2.2-.36,3.32,0,.01,0,.02,0,.04-.03,.34-.06,.69-.1,1.03,0,.04,0,.08-.01,.12-.03,.33-.06,.66-.08,.99,0,.03,0,.07,0,.1-.09,1.09-.16,2.18-.22,3.26,0,.06,0,.11,0,.17-.02,.29-.03,.59-.04,.88,0,.08,0,.15-.01,.23-.01,.29-.02,.57-.04,.85,0,.07,0,.13,0,.2-.03,.7-.05,1.39-.06,2.07,0,.04,0,.08,0,.13,0,.29,0,.57-.01,.86,0,.09,0,.18,0,.27,0,.24,0,.47,0,.71,0,.1,0,.2,0,.29,0,.24,0,.47,0,.7,0,.09,0,.17,0,.26,0,.29,.01,.58,.02,.87,0,.02,0,.04,0,.06,0,.31,.02,.62,.03,.92,0,.07,0,.14,0,.22,0,.22,.02,.44,.03,.66,0,.1,.01,.2,.02,.29,.01,.19,.02,.38,.04,.57,0,.1,.01,.2,.02,.3,.01,.19,.03,.38,.05,.57,0,.09,.01,.17,.02,.26,.02,.25,.05,.5,.07,.74,0,.02,0,.04,0,.05,.03,.26,.06,.51,.09,.76,0,.07,.02,.15,.03,.22,.02,.17,.05,.34,.07,.51,.01,.09,.03,.17,.04,.26,.02,.15,.05,.3,.08,.45,.01,.08,.03,.17,.05,.25,.03,.15,.06,.3,.09,.45,.01,.07,.03,.14,.04,.21,.05,.21,.09,.42,.14,.62l.1-.13c.14,.85,.32,1.69,.55,2.54,3.92,14.55,19.37,23.1,34.83,19.47,3.63-.33,7.26-1.58,10.52-3.84l11.54-7.98c-.31,.35-.64,.7-.98,1.03l1.03-.66Z" style="fill:#71bdff;"/><path d="M114.44,113.17l-3.29,2.12c-.74-.95-1.61-1.98-2.63-3.04-2.37-.16-4.76-.06-7.15,.3l15.95,59.19c2.51,.04,5.08-.22,7.65-.83,3.63-.33,7.26-1.58,10.52-3.84l9.17-6.34c.81-5.68,.5-11.71-1.12-17.72-4.15-15.39-15.73-26.56-29.1-29.84Z" style="fill:#3b1b64;"/><path d="M130.63,128.19c-4.19-6.27-11.13-11.14-17.3-14.31l-2.19,1.41c-.91-1.17-2.02-2.45-3.34-3.76-5.1-1.74-10.47-2.43-15.76-2.01-2.85,10.01-4.75,30.86-2.56,39.52l.1-.13c.14,.85,.32,1.69,.55,2.54,3.92,14.55,19.37,23.1,34.83,19.47,3.63-.33,7.26-1.58,10.52-3.84l11.54-7.98c-.31,.35-.64,.7-.98,1.03l2.26-1.45-1.13-4.2-11.17,3c1.41-9.76,.68-20.19-5.38-29.26Z" style="fill:#3a8bdc;"/><g><path d="M138.91,115.91c-2.98,1.3-1.68,6.97-4.85,9.61-3.24,2.69-24.59-4.21-23.71,10.87,.47,7.98,5.81,16.84,9.7,21.42,3.97,4.67,6.36,8.37,14.12,8.56,.31,0,.61,0,.92-.03,1.8-.53,3.56-1.34,5.2-2.45l10.57-7.12c8.61-5.8,10.83-17.47,4.96-26.06l-5.22-7.64c-.12-.18-.25-.35-.37-.52-1.75-1.84-8.96-7.67-11.31-6.64Z" style="fill:#753bbb;"/><path d="M159.32,136.33c-.69-.94-1.54-1.71-2.5-2.32-3.16-6.56-7.81-11.09-9.75-12.17-1.33-.74-3.85-2.86-5.94-1.89-2.66,1.23-1.85,5.62-4.69,8.09-2.9,2.52-19.61,.79-21.01,7.54-1.47,7.11,4.81,18.16,8.22,22.33,3.29,4.03,5.34,7.27,11.42,7.66,4.93,.43,10.96-1.5,16.29-5.68,8.87-6.96,12.44-17.5,7.97-23.54Z" style="fill:#fff;"/><path d="M159.32,136.33c-.69-.94-1.54-1.71-2.5-2.32-3.16-6.56-7.81-11.09-9.75-12.17-.98-.54-2.58-1.82-4.2-2.09,1.03,.5,1.97,1.19,2.62,1.56,1.94,1.08,6.59,5.61,9.75,12.17,.97,.61,1.81,1.39,2.5,2.32,4.47,6.04,.9,16.59-7.97,23.54-5.33,4.18-11.36,6.11-16.29,5.68-.99-.06-1.87-.2-2.66-.41,1.18,.5,2.55,.83,4.24,.94,4.93,.43,10.96-1.5,16.29-5.68,8.87-6.96,12.44-17.5,7.97-23.54Z" style="fill:#bbb; opacity:.5;"/></g><path d="M124.03,103.89c.64-1.3,3.13-1.96,6.33-2.81,3.18-.84,5.93-1.58,7.71-.71,3.62,1.77,2.29,9.79-1.74,11.48-4.81,2.01-13.82-4.85-12.3-7.96Z" style="fill:#71bdff;"/></g><g><path d="M146.16,144.89c.23,1.03,0,2.11-.62,2.97-.1,.13-.02,.34,.11,.42,.15,.09,.32,.03,.42-.11,.71-.99,.95-2.26,.68-3.44-.09-.39-.68-.22-.59,.16h0Z" style="fill:#300931;"/><g><path d="M139.66,145.4c1.44-2.83,.42-5.92-2.28-6.89-2.7-.97-8-.17-9.44,2.66-1.44,2.83,1.54,6.62,4.24,7.59,2.7,.97,6.05-.54,7.49-3.37Z" style="fill:#bebfc0;"/><ellipse cx="137.8" cy="143.03" rx="1.42" ry="2.12" transform="translate(-49.79 77.81) rotate(-26.9)" style="fill:#300931;"/><path d="M147.78,142.16c.33,.46,.14,2.25-1.05,3.1-1.19,.85-2.94,.43-3.27-.03s.37-1.53,1.56-2.37,2.43-1.16,2.76-.69Z" style="fill:#300931;"/><path d="M142.04,148.26c.32-.6,1.79,.15,3.75-.59,1.41-.53,2.35-1.56,2.95-2.4,.18,.41,.4,1.06,.42,1.85,.04,1.93-1.15,4.56-3.18,4.77-2.31,.24-4.39-2.79-3.94-3.64Z" style="fill:#300931;"/><path d="M143.21,150.72c.74,.72,1.73,1.28,2.77,1.17,1.04-.11,1.85-.85,2.4-1.81-.5-1.04-1.62-1.7-2.83-1.54s-2.1,1.06-2.34,2.18Z" style="fill:#f0d4ff;"/><ellipse cx="147.05" cy="138.3" rx="1.31" ry="1.97" transform="translate(-46.66 81.48) rotate(-26.9)" style="fill:#300931;"/></g><path d="M147.09,120.37c-1.71-.47-3.49-.67-5.29-.64h0c-.33,.03-.66,.1-.97,.25-2.62,1.22-1.82,5.54-4.62,7.96-2.86,2.48-19.32,.78-20.69,7.42-1.45,7,4.74,17.88,8.09,21.99,.13,.16,.26,.32,.39,.48,3.71,.21,8.89,.14,11.64-1.9,5.56-4.12,7.73-13.15,13.56-13.62,4.76-.39,7.9,.12,8.86-6.87,.44-3.19-2.56-12.75-10.97-15.07Z" style="fill:url(#linear-gradient-9); opacity:.33; stroke:#fff; stroke-miterlimit:10; stroke-width:.51px;"/></g></g><path d="M149.87,191.71l.41,13.33h9.74s1.56-2.76,2.21-4.6c.48-1.38,2.21-5.52,3.36-8.73h-15.71Z" style="fill:#563885;"/><path d="M163.98,191.71v13.33h8.55c1.46-1.1,2.71-2.25,3.77-3.4,2.3-2.49,4.28-6,5.75-9.93h-18.07Z" style="fill:#753bbb;"/><path d="M164.4,198.92h3.04c2.7,0,4.9,2.2,4.9,4.9v1.22h-12.84v-1.22c0-2.7,2.2-4.9,4.9-4.9Z" style="fill:#8b74b2;"/><path d="M149.99,198.92h3.04c2.7,0,4.9,2.2,4.9,4.9v1.22h-12.84v-1.22c0-2.7,2.2-4.9,4.9-4.9Z" style="fill:#8b74b2;"/></g></g></g><path d="M96.84,227.35h125.31c32.09,0,58.14,26.05,58.14,58.14v178.65c0,12.59-10.22,22.8-22.8,22.8H61.51c-12.59,0-22.8-10.22-22.8-22.8v-178.65c0-32.09,26.05-58.14,58.14-58.14Z" style="fill:#fdf3da;"/></g><g><path d="M254.99,88.38l6.73,9.67,12.33-3.55s-4.32-3.52-8.33-4.9-10.73-1.22-10.73-1.22Z" style="fill:#3a8bdc;"/><path d="M260.29,33.68s.44,3.75,0,4.7-.44,1.25-1.84,1.25h-1.4s4.85,2.65,6.54,3.6,5.29,2.43,7.35,2.57l2.06,.15,7.28-11.17-19.99-1.1Z" style="fill:#1c6caf;"/><path d="M190.7,45.83s2.59,0,4.53-.71,4.12-2.53,4.12-2.53l3.35,4.12s-2.24,1.71-3.71,2.18-3.47,.53-4.35,.41-3.94-3.47-3.94-3.47Z" style="fill:#3a8bdc;"/><path d="M104,16.53l5.19,5.66s4.78,.13,7.61-.4,7.88-2.76,9.77-3.77,1.28-.88,1.28-.88l-8.49-7.21s-1.41,1.62-4.04,3.1-5.52,2.71-7.41,3.04-3.91,.46-3.91,.46Z" style="fill:#1c6caf;"/><path d="M83.27,69.64s-1.45,2.39-1.87,3.8-1.41,4.14-1.73,6.94l-.33,2.8,8.67-2.8s-1.55-3.33-1.55-4.69,1.12-5.72,1.55-6.84l.42-1.12-5.15,1.92Z" style="fill:#3a8bdc;"/><path d="M24.1,61.73s1.95,3.13,3.05,4.82,5.75,6.77,5.75,6.77l6.67-5.03s-3.72-2.84-5.25-5.03-4.05-6.02-4.05-6.02l-6.17,4.49Z" style="fill:#1c6caf;"/><path d="M2.88,128.11s1.72,3.85,4.39,6.41,8.14,7.45,8.14,7.45l4.51-8.2s-5.78-1.78-7.44-3.05-5.72-6.29-5.72-6.29l-3.88,3.69Z" style="fill:#3a8bdc;"/><polygon points="281.37 137.66 289.66 149.01 302.63 146.67 299.03 140.9 281.37 137.66" style="fill:#1c6caf;"/></g></g></svg>