<?xml version="1.0" encoding="UTF-8"?><svg id="Layer_2" xmlns="http://www.w3.org/2000/svg" xmlns:xlink="http://www.w3.org/1999/xlink" viewBox="0 0 711.05 711.05"><defs><linearGradient id="linear-gradient" x1="632.29" y1="299.43" x2="361.3" y2="349" gradientUnits="userSpaceOnUse"><stop offset="0" stop-color="#fff" stop-opacity="0"/><stop offset="1" stop-color="#feeb68"/></linearGradient><linearGradient id="linear-gradient-2" x1="509.37" y1="122.94" x2="365.09" y2="329" xlink:href="#linear-gradient"/><linearGradient id="linear-gradient-3" x1="301.14" y1="83.79" x2="344.9" y2="309.18" xlink:href="#linear-gradient"/><linearGradient id="linear-gradient-4" x1="117.8" y1="194.86" x2="355.13" y2="346.37" xlink:href="#linear-gradient"/><linearGradient id="linear-gradient-5" x1="85.02" y1="410.31" x2="341.91" y2="362.72" xlink:href="#linear-gradient"/><linearGradient id="linear-gradient-6" x1="207.85" y1="581.86" x2="355.96" y2="378.53" xlink:href="#linear-gradient"/><linearGradient id="linear-gradient-7" x1="411.94" y1="624.37" x2="371.6" y2="370.18" xlink:href="#linear-gradient"/><linearGradient id="linear-gradient-8" x1="587.24" y1="510.08" x2="364.47" y2="359.13" gradientUnits="userSpaceOnUse"><stop offset="0" stop-color="#fff" stop-opacity="0"/><stop offset="1" stop-color="#feeb68"/></linearGradient></defs><g id="Layer_9"><g style="opacity:.38;"><path d="M355.53,355.53l328.47-136.05c8.91,21.51,15.69,43.85,20.23,66.69,4.54,22.84,6.83,46.07,6.83,69.36H355.53Z" style="fill:url(#linear-gradient);"/><path d="M355.53,355.53L491.79,27.15c21.51,8.93,42.09,19.94,61.44,32.89,19.35,12.95,37.39,27.77,53.84,44.25l-251.55,251.24Z" style="fill:url(#linear-gradient-2);"/><path d="M355.53,355.53L219.48,27.06c21.51-8.91,43.85-15.69,66.69-20.23,22.84-4.54,46.07-6.83,69.36-6.83V355.53Z" style="fill:url(#linear-gradient-3);"/><path d="M355.53,355.53L27.15,219.26c8.93-21.51,19.94-42.09,32.89-61.44,12.95-19.35,27.77-37.39,44.25-53.84l251.24,251.55Z" style="fill:url(#linear-gradient-4);"/><path d="M355.53,355.53L27.06,491.57c-8.91-21.51-15.69-43.85-20.23-66.69-4.54-22.84-6.83-46.07-6.83-69.36H355.53Z" style="fill:url(#linear-gradient-5);"/><path d="M355.53,355.53l-136.27,328.37c-21.51-8.93-42.09-19.94-61.44-32.89-19.35-12.95-37.39-27.77-53.84-44.25l251.55-251.24Z" style="fill:url(#linear-gradient-6);"/><path d="M355.53,355.53l136.05,328.47c-21.51,8.91-43.85,15.69-66.69,20.23-22.84,4.54-46.07,6.83-69.36,6.83V355.53Z" style="fill:url(#linear-gradient-7);"/><path d="M355.53,355.53l328.37,136.27c-8.93,21.51-19.94,42.09-32.89,61.44-12.95,19.35-27.77,37.39-44.25,53.84l-251.24-251.55Z" style="fill:url(#linear-gradient-8);"/></g></g></svg>