<?xml version="1.0" encoding="UTF-8"?><svg id="Layer_2" xmlns="http://www.w3.org/2000/svg" viewBox="0 0 784.49 433.3"><g id="Layer_23"><g><polygon points="701.8 409.86 723.39 433.3 757.19 428.46 747.8 416.56 701.8 409.86" style="fill:#f1edf9;"/><path d="M729.89,233.59l19.27,23,35.33-8.45s-12.39-8.37-23.86-11.64c-11.47-3.27-30.74-2.91-30.74-2.91Z" style="fill:#ab96d1;"/><path d="M677.48,93.9s1.21,8.18,0,10.27c-1.21,2.09-1.21,2.73-5.06,2.73h-3.85s13.36,5.78,18.01,7.86c4.65,2.09,14.57,5.29,20.24,5.62l5.67,.32,20.04-24.39-55.05-2.41Z" style="fill:#f1edf9;"/><path d="M414.71,10.61s10.71,0,18.74-2.31c8.03-2.31,17.03-8.29,17.03-8.29l13.87,13.5s-9.25,5.59-15.33,7.14c-6.08,1.54-14.36,1.74-18.01,1.35-3.65-.39-16.3-11.38-16.3-11.38Z" style="fill:#ab96d1;"/><path d="M295.33,108.05l10.73,9.28s9.89,.22,15.74-.66c5.85-.88,16.3-4.53,20.2-6.18,3.9-1.66,2.65-1.44,2.65-1.44l-17.55-11.82s-2.93,2.65-8.36,5.08c-5.43,2.43-11.42,4.44-15.32,4.98-3.9,.54-8.08,.76-8.08,.76Z" style="fill:#f1edf9;"/><path d="M112.03,87.94s6.43,8.2,10.06,12.63c3.63,4.43,19,17.72,19,17.72l22.04-13.18s-12.28-7.45-17.34-13.18c-5.06-5.73-13.37-15.75-13.37-15.75l-20.39,11.75Z" style="fill:#ab96d1;"/><path d="M39.86,244.34s5.53,9.84,14.14,16.37c8.61,6.53,26.23,19.04,26.23,19.04l14.55-20.96s-18.65-4.55-23.98-7.8c-5.33-3.25-18.44-16.08-18.44-16.08l-12.5,9.42Z" style="fill:#f1edf9;"/><path d="M0,396.81s15.62,11.03,22.15,16.21c6.53,5.18,22.71,15.53,22.71,15.53l14.48-20.26s-15.62-2.93-24.13-7.88c-8.52-4.95-20.44-15.08-20.44-15.08l-14.76,11.48Z" style="fill:#ab96d1;"/></g></g></svg>