<?xml version="1.0" encoding="UTF-8"?><svg id="Layer_2" xmlns="http://www.w3.org/2000/svg" viewBox="0 0 40.25 135.23"><g id="Layer_23"><g><path d="M0,35.63H25c8.42,0,15.25,6.83,15.25,15.25V119.99c0,8.42-6.83,15.25-15.25,15.25H0V35.63H0Z" style="fill:#fed629;"/><path d="M25,111.25H0v23.99H25c8.42,0,15.25-6.83,15.25-15.25v-23.99c0,8.42-6.83,15.25-15.25,15.25Z" style="fill:#fcc12b;"/><rect x="4.73" y="55.45" width="25.09" height="25.09" rx="7.98" ry="7.98" style="fill:#c68209; opacity:.54;"/><path d="M25,126.5H0v8.74H25c8.42,0,15.25-6.83,15.25-15.25v-8.74c0,8.42-6.83,15.25-15.25,15.25Z" style="fill:#c68209; opacity:.54;"/></g><g><path d="M10.69,13.73h13.16v53.97c0,2.67-2.17,4.85-4.85,4.85h-3.47c-2.67,0-4.85-2.17-4.85-4.85V13.73h0Z" style="fill:#fcc12b;"/><path d="M17.27,69.9c-3.63,0-6.58-1.37-6.58-3.06v2.64c0,1.69,2.95,3.06,6.58,3.06s6.58-1.37,6.58-3.06v-2.64c0,1.69-2.95,3.06-6.58,3.06Z" style="fill:#c68209; opacity:.54;"/><path d="M10.69,20.79c0,1.69,2.95,3.06,6.58,3.06s6.58-1.37,6.58-3.06v-7.06H10.69v7.06Z" style="fill:#c68209; opacity:.54;"/></g><g><circle cx="17.27" cy="16.92" r="16.92" style="fill:#d75745;"/><path d="M26.61,2.82c2.71,3,4.37,6.96,4.37,11.32,0,9.34-7.57,16.92-16.92,16.92-3.45,0-6.66-1.04-9.34-2.82,3.1,3.43,7.56,5.59,12.54,5.59,9.34,0,16.92-7.57,16.92-16.92,0-5.89-3.01-11.07-7.58-14.1Z" style="fill:#a3291c;"/><circle cx="11.74" cy="9.56" r="4.17" style="fill:#fff;"/></g></g></svg>