<?xml version="1.0" encoding="UTF-8"?><svg id="Layer_2" xmlns="http://www.w3.org/2000/svg" viewBox="0 0 704.99 590.29"><g id="Layer_23"><g><path d="M603.73,104.9H152.51c-16.89,0-30.57,13.69-30.57,30.57v145.83c0,16.89,13.69,30.57,30.57,30.57h11.6v-49.83c0-6.02,4.88-10.9,10.9-10.9h61.67c6.02,0,10.9,4.88,10.9,10.9v49.83h7.01v-49.83c0-6.02,4.88-10.9,10.9-10.9h61.67c6.02,0,10.9,4.88,10.9,10.9v49.83h40.18v-49.83c0-6.02,4.88-10.9,10.9-10.9h61.67c6.02,0,10.9,4.88,10.9,10.9v49.83h7.01v-49.83c0-6.02,4.88-10.9,10.9-10.9h61.67c6.02,0,10.9,4.88,10.9,10.9v49.83h51.57c16.89,0,30.57-13.69,30.57-30.57V135.47c0-16.89-13.69-30.57-30.57-30.57Z" style="fill:#efab11;"/><path d="M586.05,132.86H171.83c-12.72,0-23.03,10.31-23.03,23.03v133.56c0,10.01,6.39,18.52,15.31,21.7v-49.11c0-6.02,4.88-10.9,10.9-10.9h61.67c6.02,0,10.9,4.88,10.9,10.9v50.44h7.01v-50.44c0-6.02,4.88-10.9,10.9-10.9h61.67c6.02,0,10.9,4.88,10.9,10.9v50.44h40.18v-50.44c0-6.02,4.88-10.9,10.9-10.9h61.67c6.02,0,10.9,4.88,10.9,10.9v50.44h7.01v-50.44c0-6.02,4.88-10.9,10.9-10.9h61.67c6.02,0,10.9,4.88,10.9,10.9v50.44h33.89c12.72,0,23.03-10.31,23.03-23.03V155.89c0-12.72-10.31-23.03-23.03-23.03Z" style="fill:#4a4865;"/><path d="M615.01,209.6H141.67c-10.9,0-19.73,8.83-19.73,19.73v215.44c0,10.9,8.83,19.73,19.73,19.73h473.34c10.9,0,19.73-8.83,19.73-19.73V229.33c0-10.9-8.83-19.73-19.73-19.73ZM247.57,412.18c0,6.02-4.88,10.9-10.9,10.9h-61.67c-6.02,0-10.9-4.88-10.9-10.9v-150.14c0-6.02,4.88-10.9,10.9-10.9h61.67c6.02,0,10.9,4.88,10.9,10.9v150.14Zm79.57,10.9h-61.67c-6.02,0-10.9-4.88-10.9-10.9v-150.14c0-6.02,4.88-10.9,10.9-10.9h61.67c6.02,0,10.9,4.88,10.9,10.9v150.14c0,6.02-4.88,10.9-10.9,10.9Zm123.64,0h-61.67c-6.02,0-10.9-4.88-10.9-10.9v-150.14c0-6.02,4.88-10.9,10.9-10.9h61.67c6.02,0,10.9,4.88,10.9,10.9v150.14c0,6.02-4.88,10.9-10.9,10.9Zm90.47,0h-61.67c-6.02,0-10.9-4.88-10.9-10.9v-150.14c0-6.02,4.88-10.9,10.9-10.9h61.67c6.02,0,10.9,4.88,10.9,10.9v150.14c0,6.02-4.88,10.9-10.9,10.9Z" style="fill:#fed629;"/><path d="M595.88,235.68H160.77c-6.96,0-12.6,5.64-12.6,12.6v177.39c0,6.96,5.64,12.6,12.6,12.6h435.11c6.96,0,12.6-5.64,12.6-12.6V248.27c0-6.96-5.64-12.6-12.6-12.6ZM247.57,412.18c0,6.02-4.88,10.9-10.9,10.9h-61.67c-6.02,0-10.9-4.88-10.9-10.9v-150.14c0-6.02,4.88-10.9,10.9-10.9h61.67c6.02,0,10.9,4.88,10.9,10.9v150.14Zm79.57,10.9h-61.67c-6.02,0-10.9-4.88-10.9-10.9v-150.14c0-6.02,4.88-10.9,10.9-10.9h61.67c6.02,0,10.9,4.88,10.9,10.9v150.14c0,6.02-4.88,10.9-10.9,10.9Zm123.64,0h-61.67c-6.02,0-10.9-4.88-10.9-10.9v-150.14c0-6.02,4.88-10.9,10.9-10.9h61.67c6.02,0,10.9,4.88,10.9,10.9v150.14c0,6.02-4.88,10.9-10.9,10.9Zm90.47,0h-61.67c-6.02,0-10.9-4.88-10.9-10.9v-150.14c0-6.02,4.88-10.9,10.9-10.9h61.67c6.02,0,10.9,4.88,10.9,10.9v150.14c0,6.02-4.88,10.9-10.9,10.9Z" style="fill:#efab11;"/><path d="M544.78,251.14h-68.7c-4.08,0-7.38,4.88-7.38,10.9v34.29c0-8.09,4.44-14.65,9.92-14.65h63.25c5.48,0,9.92,6.56,9.92,14.65v81.8c0,8.09-4.44,14.65-9.92,14.65h-63.25c-5.48,0-9.92-6.56-9.92-14.65v34.05c0,6.02,3.3,10.9,7.38,10.9h68.7c4.08,0,7.38-4.88,7.38-10.9v-150.14c0-6.02-3.3-10.9-7.38-10.9Z" style="fill:#2c0d2f; opacity:.22;"/><rect x="353.62" y="388.33" width="14.8" height="14.8" rx="7.4" ry="7.4" style="fill:#fff;"/><path d="M588.14,243.49H168.51c-6.96,0-12.6,5.64-12.6,12.6v161.93c0,6.96,5.64,12.6,12.6,12.6h419.63c6.96,0,12.6-5.64,12.6-12.6v-161.93c0-6.96-5.64-12.6-12.6-12.6ZM247.57,412.18c0,6.02-4.88,10.9-10.9,10.9h-61.67c-6.02,0-10.9-4.88-10.9-10.9v-150.14c0-6.02,4.88-10.9,10.9-10.9h61.67c6.02,0,10.9,4.88,10.9,10.9v150.14Zm79.57,10.9h-61.67c-6.02,0-10.9-4.88-10.9-10.9v-150.14c0-6.02,4.88-10.9,10.9-10.9h61.67c6.02,0,10.9,4.88,10.9,10.9v150.14c0,6.02-4.88,10.9-10.9,10.9Zm123.64,0h-61.67c-6.02,0-10.9-4.88-10.9-10.9v-150.14c0-6.02,4.88-10.9,10.9-10.9h61.67c6.02,0,10.9,4.88,10.9,10.9v150.14c0,6.02-4.88,10.9-10.9,10.9Zm90.47,0h-61.67c-6.02,0-10.9-4.88-10.9-10.9v-150.14c0-6.02,4.88-10.9,10.9-10.9h61.67c6.02,0,10.9,4.88,10.9,10.9v150.14c0,6.02-4.88,10.9-10.9,10.9Z" style="fill:#4a4865;"/><g><path d="M634.94,235.7h15.52c7.88,0,14.28,6.4,14.28,14.28v172.6c0,7.88-6.4,14.28-14.28,14.28h-15.52V235.7h0Z" style="fill:#fed629;"/><path d="M634.94,287.46h13.69c5.35,0,9.69,4.34,9.69,9.69v111.58c0,5.35-4.34,9.69-9.69,9.69h-13.69v-130.96h0Z" style="fill:#efab11; opacity:.54;"/><path d="M634.94,287.25h20.35c1.68,0,3.04,1.36,3.04,3.04v13.31c0,1.68-1.36,3.04-3.04,3.04h-20.35v-19.38h0Z" style="fill:#feeb68;"/><path d="M634.94,380.71v37.71h13.69c5.35,0,9.69-4.34,9.69-9.69v-28.02h-23.38Z" style="fill:#c68209; opacity:.54;"/><rect x="634.94" y="364.73" width="23.38" height="6.54" style="fill:#c68209; opacity:.54;"/><rect x="634.94" y="235.7" width="8.51" height="201.16" style="fill:#efab11; opacity:.54;"/></g><rect x="168.11" y="464.5" width="415.89" height="104.42" style="fill:#efab11;"/><rect x="168.11" y="464.72" width="415.89" height="19.48" style="fill:#7c7b7b; opacity:.31;"/><rect x="142.62" y="568.14" width="461.68" height="22.15" style="fill:#fed629;"/><g><path d="M562.18,385.39l8.7-23.94h2.28l-8.73,23.94h-2.25Z" style="fill:#fff;"/><path d="M576.07,383.74v-20.64h2.58v18.36h9.63v2.28h-12.21Z" style="fill:#fff;"/></g><path d="M135.64,314.66l29.04,20.11c1.79,1.24,1.75,3.91-.08,5.1l-29.52,19.16c-2.06,1.33-4.77-.16-4.74-2.61l.48-39.27c.03-2.46,2.79-3.88,4.82-2.49Z" style="fill:#d75745; stroke:#e2e2e2; stroke-miterlimit:10; stroke-width:3px;"/><path d="M149.09,334.63c-1.22,.75-1.23,2.54-.03,3.41l10.82,7.81,8.87-5.97c1.81-1.22,1.81-3.88,0-5.1l-9.58-6.41-10.08,6.25Z" style="fill:#e2e2e2; opacity:.33;"/><g><circle cx="136.86" cy="201.25" r="7.13" style="fill:#fff; opacity:.36;"/><circle cx="136.86" cy="201.14" r="5.07" style="fill:#fff;"/></g><g><circle cx="136.86" cy="169.98" r="7.13" style="fill:#fff; opacity:.36;"/><circle cx="136.86" cy="169.87" r="5.07" style="fill:#fff;"/></g><g><circle cx="136.86" cy="138.43" r="7.13" style="fill:#fff; opacity:.36;"/><circle cx="136.86" cy="138.32" r="5.07" style="fill:#fff;"/></g><g><circle cx="158.83" cy="119.38" r="7.13" style="fill:#fff; opacity:.36;"/><circle cx="158.83" cy="119.27" r="5.07" style="fill:#fff;"/></g><g><circle cx="190.37" cy="119.38" r="7.13" style="fill:#fff; opacity:.36;"/><circle cx="190.37" cy="119.27" r="5.07" style="fill:#fff;"/></g><g><circle cx="222.14" cy="119.38" r="7.13" style="fill:#fff; opacity:.36;"/><circle cx="222.14" cy="119.27" r="5.07" style="fill:#fff;"/></g><g><circle cx="253.91" cy="119.38" r="7.13" style="fill:#fff; opacity:.36;"/><circle cx="253.91" cy="119.27" r="5.07" style="fill:#fff;"/></g><g><circle cx="501.65" cy="118.77" r="7.13" style="fill:#fff; opacity:.36;"/><circle cx="501.65" cy="118.66" r="5.07" style="fill:#fff;"/></g><g><circle cx="533.05" cy="118.77" r="7.13" style="fill:#fff; opacity:.36;"/><circle cx="533.05" cy="118.66" r="5.07" style="fill:#fff;"/></g><g><circle cx="564.12" cy="118.77" r="7.13" style="fill:#fff; opacity:.36;"/><circle cx="564.12" cy="118.66" r="5.07" style="fill:#fff;"/></g><g><circle cx="595.88" cy="119.77" r="7.13" style="fill:#fff; opacity:.36;"/><circle cx="595.88" cy="119.66" r="5.07" style="fill:#fff;"/></g><g><circle cx="622.77" cy="201.14" r="7.13" style="fill:#fff; opacity:.36;"/><circle cx="622.77" cy="201.03" r="5.07" style="fill:#fff;"/></g><g><circle cx="622.77" cy="169.36" r="7.13" style="fill:#fff; opacity:.36;"/><circle cx="622.77" cy="169.25" r="5.07" style="fill:#fff;"/></g><g><circle cx="620.92" cy="138.45" r="7.13" style="fill:#fff; opacity:.36;"/><circle cx="620.92" cy="138.34" r="5.07" style="fill:#fff;"/></g><rect x="349.9" y="377.78" width="14.8" height="14.8" rx="7.4" ry="7.4" style="fill:#fff;"/><path d="M621.49,359.16l-29.36-19.64c-1.81-1.21-1.82-3.88,0-5.1l29.21-19.64c2.03-1.37,4.77,.08,4.78,2.53l.15,39.28c0,2.46-2.73,3.93-4.77,2.56Z" style="fill:#d75745; stroke:#e2e2e2; stroke-miterlimit:10; stroke-width:3px;"/><path d="M611.79,339.68c1.22-.75,1.23-2.54,.03-3.41l-10.82-7.81-8.87,5.97c-1.81,1.22-1.81,3.88,0,5.1l9.58,6.41,10.08-6.25Z" style="fill:#e2e2e2; opacity:.33;"/><g><path d="M92.65,235.68h16.08c7.88,0,14.28,6.4,14.28,14.28v172.6c0,7.88-6.4,14.28-14.28,14.28h-16.08V235.68h0Z" transform="translate(215.66 672.51) rotate(180)" style="fill:#fed629;"/><path d="M99.19,287.43h14.14c5.35,0,9.69,4.34,9.69,9.69v111.58c0,5.35-4.34,9.69-9.69,9.69h-14.14v-130.96h0Z" transform="translate(222.2 705.83) rotate(180)" style="fill:#efab11; opacity:.54;"/><path d="M99.19,287.23h20.79c1.68,0,3.04,1.36,3.04,3.04v13.31c0,1.68-1.36,3.04-3.04,3.04h-20.79v-19.38h0Z" transform="translate(222.2 593.84) rotate(-180)" style="fill:#feeb68;"/><path d="M123.01,380.69v37.71h-13.95c-5.45,0-9.87-4.34-9.87-9.69v-28.02h23.83Z" style="fill:#c68209; opacity:.54;"/><rect x="99.19" y="364.71" width="23.83" height="6.54" transform="translate(222.2 735.95) rotate(180)" style="fill:#c68209; opacity:.54;"/><rect x="114.34" y="235.68" width="8.67" height="201.16" transform="translate(237.35 672.51) rotate(180)" style="fill:#efab11; opacity:.54;"/></g><g><polygon points="438.61 243.49 459.43 209.6 435.18 209.6 414.37 243.49 438.61 243.49" style="fill:#fff; opacity:.39;"/><polygon points="299.44 430.61 278.63 464.5 302.88 464.5 323.69 430.61 299.44 430.61" style="fill:#fff; opacity:.39;"/><g><polygon points="200.47 430.61 179.65 464.5 264.5 464.5 285.31 430.61 200.47 430.61" style="fill:#fff; opacity:.39;"/><polygon points="400.23 243.49 421.05 209.6 336.2 209.6 315.39 243.49 400.23 243.49" style="fill:#fff; opacity:.39;"/></g></g><path d="M240.19,251.14h-68.7c-4.08,0-7.38,4.88-7.38,10.9v34.29c0-8.09,4.44-14.65,9.92-14.65h63.25c5.48,0,9.92,6.56,9.92,14.65v81.8c0,8.09-4.44,14.65-9.92,14.65h-63.25c-5.48,0-9.92-6.56-9.92-14.65v34.05c0,6.02,3.3,10.9,7.38,10.9h68.7c4.08,0,7.38-4.88,7.38-10.9v-150.14c0-6.02-3.3-10.9-7.38-10.9Z" style="fill:#2c0d2f; opacity:.22;"/><path d="M330.67,251.14h-68.7c-4.08,0-7.38,4.88-7.38,10.9v34.29c0-8.09,4.44-14.65,9.92-14.65h63.25c5.48,0,9.92,6.56,9.92,14.65v81.8c0,8.09-4.44,14.65-9.92,14.65h-63.25c-5.48,0-9.92-6.56-9.92-14.65v34.05c0,6.02,3.3,10.9,7.38,10.9h68.7c4.08,0,7.38-4.88,7.38-10.9v-150.14c0-6.02-3.3-10.9-7.38-10.9Z" style="fill:#2c0d2f; opacity:.22;"/></g><g><path d="M664.74,296.15h25c8.42,0,15.25,6.83,15.25,15.25v69.1c0,8.42-6.83,15.25-15.25,15.25h-25v-99.6h0Z" style="fill:#fed629;"/><path d="M689.74,371.77h-25v23.99h25c8.42,0,15.25-6.83,15.25-15.25v-23.99c0,8.42-6.83,15.25-15.25,15.25Z" style="fill:#fcc12b;"/><rect x="669.47" y="305.3" width="25.09" height="25.09" rx="7.98" ry="7.98" style="fill:#c68209; opacity:.54;"/><path d="M689.74,387.01h-25v8.74h25c8.42,0,15.25-6.83,15.25-15.25v-8.74c0,8.42-6.83,15.25-15.25,15.25Z" style="fill:#c68209; opacity:.54;"/></g><g><path d="M675.44,230.5h13.16v88.34c0,2.67-2.17,4.85-4.85,4.85h-3.47c-2.67,0-4.85-2.17-4.85-4.85v-88.34h0Z" style="fill:#fcc12b;"/><path d="M682.02,319.5c-3.63,0-6.58-2.17-6.58-4.85v4.19c0,2.68,2.95,4.85,6.58,4.85s6.58-2.17,6.58-4.85v-4.19c0,2.68-2.95,4.85-6.58,4.85Z" style="fill:#c68209; opacity:.54;"/><path d="M675.44,241.7c0,2.68,2.95,4.85,6.58,4.85s6.58-2.17,6.58-4.85v-11.19h-13.16v11.19Z" style="fill:#c68209; opacity:.54;"/></g><g><circle cx="682.02" cy="215.24" r="16.92" style="fill:#d75745;"/><path d="M691.35,201.14c2.71,3,4.37,6.96,4.37,11.32,0,9.34-7.57,16.92-16.92,16.92-3.45,0-6.66-1.04-9.34-2.82,3.1,3.43,7.56,5.59,12.54,5.59,9.34,0,16.92-7.57,16.92-16.92,0-5.89-3.01-11.07-7.58-14.1Z" style="fill:#a3291c;"/><circle cx="676.49" cy="207.88" r="4.17" style="fill:#fff;"/></g><path d="M14.74,428.96c-4.67,84.2,43.68,117.99,73.89,119.54,23.23,1.2,77.04-7.37,87.82-83.23" style="fill:none; stroke:#2c0d2f; stroke-miterlimit:10; stroke-width:5px;"/><g><path d="M41.96,306.22s9.28-14.46,13.78-19.24,12.82-13.23,19.92-17.19c7.09-3.96,17.74-8.05,17.74-8.05l2.73,8.05s-12.69,5.32-17.74,8.46c-5.05,3.14-15.96,14.19-18.28,17.19-2.32,3-11.05,16.43-11.05,16.43l-7.09-5.66Z" style="fill:#ddd;"/><path d="M35.2,309.44l5.52-4.58c.56-.47,1.37-.5,1.97-.07l7.14,5.1c.56,.4,.81,1.11,.61,1.78l-2.26,7.59-12.98-9.82Z" style="fill:#1c6caf;"/><rect x="7.35" y="412.69" width="14.15" height="8.43" rx="2.91" ry="2.91" style="fill:#1c6caf;"/><rect x="5.42" y="419.26" width="17.7" height="11.44" rx="2.91" ry="2.91" style="fill:#1c6caf;"/><path d="M41.89,360.59s-6.83,6.29-7.97,7.59c-1.72,1.97-2.34,5.06-1.14,7.59,1.25,2.64,9.1,23.64,9.1,23.64,0,0,.82,1.31-1.02,1.05-1.83-.26-20.5-4.62-20.5-4.62v4.66l22.85,5.11,10-10.12-1.02-2.53-5.93,5.32-8.55-21.63s-.87-1.74-.44-3.05c.44-1.31,.79-1.74,2.36-2.53s6.8-2.53,6.8-2.53l-4.57-7.94Z" style="fill:#1b071e;"/><path d="M43.88,365.35l2.5,2.97c.55,.65,.43,1.63-.25,2.13l-.17,.12c-.64,.48-.79,1.38-.32,2.03l2.76,3.9c.83,1.17,2.68,.58,2.68-.85v-10.73c0-.75-.56-1.38-1.3-1.46l-4.6-.53c-1.33-.15-2.16,1.39-1.3,2.41Z" style="fill:#1b071e;"/><path d="M15.54,397.23l27.56,6.3,7.99-7.2-.67-29.85s-7.76-1.53-9.78-2.99c-2.02-1.46-2.7-2.81-5.29-2.92s-14.96,.75-14.96,.75l4.61-9.86,32.05,4.16s1.91,3.94,2.14,6.19,1.01,26.99,.67,31.38c-.34,4.39-.51,15.29-1.52,15.86-14.06,7.87-41.78,4.16-41.78,4.16l-1.01-15.97Z" style="fill:#2c0d2f;"/><path d="M6.37,365.09s-4.59-1.38-5.74-5.28-.69-8.02,1.15-12.96,6.2-17.11,7.58-21.48,2.22-8.16,3.53-9.18,5.39-.58,6.99,0,4.22,1.17,5.53,.58c0,0,1.89-1.02,4.37-4.22,2.48-3.2,3.64-5.1,5.24-4.37s12.96,8.88,12.96,8.88c0,0,2.04,1.02,1.31,2.91-.73,1.89-1.17,3.06-.87,4.22s7.87,12.36,7.87,12.36c0,0,2.18,3.08,2.04,6.14s-.15,12.82-.58,14.13-1.17,1.82-8.16,2c-6.99,.18-19.52,.91-22.14,1.2s-4.95,2.11-4.95,5.06,.15,45.33,.15,45.33c0,0,.15,2.91-1.75,3.79-1.89,.87-12.82,0-12.82,0,0,0-1.75-.15-1.75-3.06s.04-46.06,.04-46.06Z" style="fill:#3a8bdc;"/></g><g><g><rect x="275.8" y="31.73" width="221.1" height="39.76" style="fill:#fff;"/><g><g><path d="M233.46,76.68h27.09c2.19,0,3.79,.25,4.78,.75s1.66,1.28,1.99,2.34c.33,1.06,.5,2.47,.5,4.23s-.17,3.17-.5,4.23c-.33,1.06-.9,1.79-1.69,2.19-1.26,.66-2.99,1-5.18,1h-35.86c-4.65,0-7.37-1.26-8.17-3.79-.4-1.06-.6-2.76-.6-5.08V27.18c0-1.53,.05-2.67,.15-3.44,.1-.76,.41-1.64,.95-2.64,.93-1.79,3.52-2.69,7.77-2.69,4.65,0,7.4,1.23,8.27,3.69,.33,1.13,.5,2.86,.5,5.18v49.41Z" style="fill:#7c7b7b;"/><path d="M308.56,17.51c9.83,0,18.36,3.55,25.6,10.66,7.24,7.11,10.86,15.92,10.86,26.45s-3.45,19.49-10.36,26.89c-6.91,7.41-15.41,11.11-25.5,11.11s-18.68-3.65-25.75-10.96-10.61-16-10.61-26.1c0-5.51,1-10.67,2.99-15.49,1.99-4.81,4.65-8.85,7.97-12.1,3.32-3.25,7.14-5.81,11.46-7.67,4.32-1.86,8.77-2.79,13.35-2.79Zm-18.13,37.55c0,5.91,1.91,10.71,5.73,14.39,3.82,3.69,8.08,5.53,12.8,5.53s8.96-1.79,12.75-5.38c3.79-3.59,5.68-8.4,5.68-14.44s-1.91-10.89-5.73-14.54c-3.82-3.65-8.09-5.48-12.8-5.48s-8.96,1.84-12.75,5.53-5.68,8.48-5.68,14.39Z" style="fill:#7c7b7b;"/><path d="M397.12,72.3l1.79-1.29c2.26-1.33,3.85-1.99,4.78-1.99,2.06,0,4.28,1.86,6.67,5.58,1.46,2.32,2.19,4.18,2.19,5.58s-.45,2.56-1.34,3.49-1.94,1.76-3.14,2.49-2.34,1.43-3.44,2.09-3.34,1.53-6.72,2.59c-3.39,1.06-6.66,1.59-9.81,1.59s-6.34-.42-9.56-1.25c-3.22-.83-6.54-2.22-9.96-4.18-3.42-1.96-6.49-4.35-9.21-7.17-2.72-2.82-4.96-6.44-6.72-10.86-1.76-4.42-2.64-9.21-2.64-14.39s.86-9.88,2.59-14.09c1.73-4.22,3.93-7.7,6.62-10.46,2.69-2.75,5.76-5.06,9.21-6.92,6.51-3.59,13.05-5.38,19.62-5.38,3.12,0,6.29,.48,9.51,1.45,3.22,.96,5.66,1.94,7.32,2.94l2.39,1.39c1.2,.73,2.12,1.33,2.79,1.79,1.73,1.39,2.59,2.97,2.59,4.73s-.7,3.6-2.09,5.53c-2.59,3.59-4.92,5.38-6.97,5.38-1.2,0-2.89-.73-5.08-2.19-2.79-2.26-6.51-3.39-11.16-3.39-4.32,0-8.57,1.49-12.75,4.48-1.99,1.46-3.65,3.52-4.98,6.18-1.33,2.66-1.99,5.66-1.99,9.01s.66,6.36,1.99,9.01c1.33,2.66,3.02,4.75,5.08,6.28,4.05,2.92,8.27,4.38,12.65,4.38,2.06,0,4-.27,5.83-.8,1.83-.53,3.14-1.06,3.94-1.59Z" style="fill:#7c7b7b;"/><path d="M485.17,71.6c3.05,2.06,5.25,3.55,6.57,4.48,2.39,1.79,3.59,3.5,3.59,5.13s-1,3.9-2.99,6.82-4.02,4.38-6.08,4.38c-1.26,0-3.19-.9-5.78-2.69-.33-.2-1.26-.83-2.79-1.89-1.53-1.06-2.72-1.86-3.59-2.39-6.18,4.78-13.12,7.17-20.82,7.17-10.29,0-18.98-3.65-26.05-10.96s-10.61-16-10.61-26.1c0-5.51,1-10.67,2.99-15.49,1.99-4.81,4.65-8.85,7.97-12.1,3.32-3.25,7.14-5.81,11.46-7.67,4.32-1.86,8.77-2.79,13.35-2.79,9.83,0,18.36,3.55,25.6,10.66,7.24,7.11,10.86,16.1,10.86,26.99,0,5.51-1.23,10.99-3.69,16.44Zm-50.9-16.54c0,5.91,1.91,10.71,5.73,14.39,3.82,3.69,8.08,5.53,12.8,5.53s8.96-1.79,12.75-5.38c3.79-3.59,5.68-8.4,5.68-14.44s-1.91-10.89-5.73-14.54c-3.82-3.65-8.09-5.48-12.8-5.48s-8.96,1.84-12.75,5.53-5.68,8.48-5.68,14.39Z" style="fill:#7c7b7b;"/><path d="M549.52,19.81c3.25,2.26,4.88,4.45,4.88,6.57,0,1.26-.76,3.02-2.29,5.28l-21.52,32.17v19.03c0,1.53-.05,2.67-.15,3.44-.1,.76-.42,1.64-.95,2.64-.53,1-1.43,1.69-2.69,2.09-1.26,.4-2.96,.6-5.08,.6s-3.82-.2-5.08-.6c-1.26-.4-2.16-1.11-2.69-2.14-.53-1.03-.85-1.92-.95-2.69-.1-.76-.15-1.94-.15-3.54v-18.83l-21.52-32.17c-1.53-2.26-2.29-4.02-2.29-5.28,0-2.12,1.46-4.17,4.38-6.13,2.92-1.96,5.01-2.94,6.28-2.94s2.26,.27,2.99,.8c1.13,.73,2.32,2.09,3.59,4.08l15.44,24.7,15.44-24.7c1.26-1.99,2.36-3.3,3.29-3.93,.93-.63,2.01-.95,3.24-.95s3.17,.83,5.83,2.49Z" style="fill:#7c7b7b;"/></g><g><path d="M275.07,167.8c-1.73-2.12-2.59-4.03-2.59-5.73s1.43-3.93,4.28-6.72c1.66-1.59,3.42-2.39,5.28-2.39s4.45,1.66,7.77,4.98c.93,1.13,2.26,2.21,3.98,3.24,1.73,1.03,3.32,1.54,4.78,1.54,6.18,0,9.26-2.52,9.26-7.57,0-1.53-.85-2.8-2.54-3.83-1.69-1.03-3.8-1.78-6.33-2.24-2.52-.46-5.25-1.21-8.17-2.24-2.92-1.03-5.64-2.24-8.17-3.64-2.52-1.39-4.63-3.6-6.33-6.62s-2.54-6.66-2.54-10.91c0-5.84,2.17-10.94,6.52-15.29,4.35-4.35,10.28-6.53,17.78-6.53,3.98,0,7.62,.52,10.91,1.54s5.56,2.08,6.82,3.14l2.49,1.89c2.06,1.93,3.09,3.55,3.09,4.88s-.8,3.16-2.39,5.48c-2.26,3.32-4.58,4.98-6.97,4.98-1.39,0-3.12-.66-5.18-1.99-.2-.13-.58-.46-1.15-1-.56-.53-1.08-.96-1.54-1.29-1.39-.86-3.17-1.29-5.33-1.29s-3.95,.52-5.38,1.54c-1.43,1.03-2.14,2.46-2.14,4.28s.85,3.3,2.54,4.43c1.69,1.13,3.8,1.89,6.33,2.29,2.52,.4,5.28,1.01,8.27,1.84s5.74,1.84,8.27,3.04c2.52,1.2,4.63,3.27,6.33,6.23s2.54,6.59,2.54,10.91-.86,8.12-2.59,11.41c-1.73,3.29-3.99,5.83-6.77,7.62-5.38,3.52-11.12,5.28-17.23,5.28-3.12,0-6.08-.38-8.87-1.15s-5.05-1.71-6.77-2.84c-3.52-2.12-5.98-4.18-7.37-6.18l-.9-1.1Z" style="fill:#7c7b7b;"/><path d="M385.94,119.79c1.73,3.52,2.59,7.44,2.59,11.75s-.86,8.22-2.59,11.71c-1.73,3.49-3.95,6.26-6.67,8.32-5.51,4.25-11.22,6.38-17.13,6.38h-12.45v11.26c0,1.53-.05,2.67-.15,3.44-.1,.76-.42,1.64-.95,2.64-.93,1.79-3.52,2.69-7.77,2.69-4.65,0-7.37-1.23-8.17-3.69-.4-1.13-.6-2.85-.6-5.18v-55.28c0-1.53,.05-2.67,.15-3.44s.41-1.64,.95-2.64c.93-1.79,3.52-2.69,7.77-2.69h21.32c5.84,0,11.52,2.13,17.03,6.38,2.72,2.06,4.95,4.85,6.67,8.37Zm-17.83,18.33c1.93-1.46,2.89-3.65,2.89-6.57s-.96-5.13-2.89-6.62c-1.93-1.49-3.92-2.24-5.98-2.24h-12.45v17.63h12.55c1.99,0,3.95-.73,5.88-2.19Z" style="fill:#7c7b7b;"/><path d="M395,113.81c0-1.53,.05-2.67,.15-3.44s.41-1.64,.95-2.64c.93-1.79,3.52-2.69,7.77-2.69,4.65,0,7.4,1.23,8.27,3.69,.33,1.13,.5,2.86,.5,5.18v55.38c0,1.59-.05,2.76-.15,3.49-.1,.73-.42,1.59-.95,2.59-.93,1.79-3.52,2.69-7.77,2.69-4.65,0-7.37-1.26-8.17-3.79-.4-1.06-.6-2.75-.6-5.08v-55.38Z" style="fill:#7c7b7b;"/><path d="M467.77,108.09c.63-1.16,1.58-1.94,2.84-2.34,1.26-.4,2.84-.6,4.73-.6s3.42,.17,4.58,.5c1.16,.33,2.02,.73,2.59,1.2,.56,.47,.98,1.16,1.25,2.09,.4,1.06,.6,2.76,.6,5.08v55.28c0,1.59-.05,2.76-.15,3.49-.1,.73-.42,1.59-.95,2.59-.93,1.79-3.52,2.69-7.77,2.69-2.59,0-4.38-.2-5.38-.6s-1.83-1.03-2.49-1.89c-14.94-19.92-24.77-32.94-29.49-39.05v32.77c0,1.59-.05,2.76-.15,3.49-.1,.73-.42,1.59-.95,2.59-.93,1.79-3.52,2.69-7.77,2.69s-6.64-.9-7.57-2.69c-.53-1-.85-1.89-.95-2.69s-.15-1.96-.15-3.49v-55.58c0-2.52,.31-4.37,.95-5.53,.63-1.16,1.58-1.94,2.84-2.34,1.26-.4,2.89-.6,4.88-.6s3.57,.18,4.73,.55c1.16,.37,1.98,.78,2.44,1.24,.26,.2,1.03,1.06,2.29,2.59,14.01,19.06,23.37,31.64,28.09,37.75v-33.67c0-2.52,.31-4.37,.95-5.53Z" style="fill:#7c7b7b;"/></g><g><path d="M278.39,164.49c-1.73-2.12-2.59-4.03-2.59-5.73s1.43-3.93,4.28-6.72c1.66-1.59,3.42-2.39,5.28-2.39s4.45,1.66,7.77,4.98c.93,1.13,2.26,2.21,3.98,3.24,1.73,1.03,3.32,1.54,4.78,1.54,6.18,0,9.26-2.52,9.26-7.57,0-1.53-.85-2.8-2.54-3.84-1.69-1.03-3.8-1.78-6.33-2.24-2.52-.46-5.25-1.21-8.17-2.24-2.92-1.03-5.64-2.24-8.17-3.63-2.52-1.39-4.63-3.6-6.33-6.62-1.69-3.02-2.54-6.66-2.54-10.91,0-5.84,2.17-10.94,6.52-15.29,4.35-4.35,10.28-6.52,17.78-6.52,3.98,0,7.62,.52,10.91,1.54,3.29,1.03,5.56,2.08,6.82,3.14l2.49,1.89c2.06,1.93,3.09,3.55,3.09,4.88s-.8,3.15-2.39,5.48c-2.26,3.32-4.58,4.98-6.97,4.98-1.39,0-3.12-.66-5.18-1.99-.2-.13-.58-.46-1.15-1-.56-.53-1.08-.96-1.54-1.29-1.39-.86-3.17-1.29-5.33-1.29s-3.95,.51-5.38,1.54c-1.43,1.03-2.14,2.46-2.14,4.28s.85,3.3,2.54,4.43,3.8,1.89,6.33,2.29c2.52,.4,5.28,1.01,8.27,1.84,2.99,.83,5.74,1.84,8.27,3.04,2.52,1.2,4.63,3.27,6.33,6.22,1.69,2.96,2.54,6.59,2.54,10.91s-.86,8.12-2.59,11.41c-1.73,3.29-3.99,5.83-6.77,7.62-5.38,3.52-11.12,5.28-17.23,5.28-3.12,0-6.08-.38-8.87-1.15s-5.05-1.71-6.77-2.84c-3.52-2.12-5.98-4.18-7.37-6.18l-.9-1.1Z" style="fill:#c4c2c2;"/><path d="M389.25,116.48c1.73,3.52,2.59,7.44,2.59,11.75s-.86,8.22-2.59,11.7c-1.73,3.49-3.95,6.26-6.67,8.32-5.51,4.25-11.22,6.38-17.13,6.38h-12.45v11.26c0,1.53-.05,2.67-.15,3.44-.1,.76-.42,1.64-.95,2.64-.93,1.79-3.52,2.69-7.77,2.69-4.65,0-7.37-1.23-8.17-3.69-.4-1.13-.6-2.85-.6-5.18v-55.28c0-1.53,.05-2.67,.15-3.44,.1-.76,.41-1.64,.95-2.64,.93-1.79,3.52-2.69,7.77-2.69h21.32c5.84,0,11.52,2.12,17.03,6.38,2.72,2.06,4.95,4.85,6.67,8.37Zm-17.83,18.33c1.93-1.46,2.89-3.65,2.89-6.57s-.96-5.13-2.89-6.62c-1.93-1.49-3.92-2.24-5.98-2.24h-12.45v17.63h12.55c1.99,0,3.95-.73,5.88-2.19Z" style="fill:#c4c2c2;"/><path d="M398.32,110.5c0-1.53,.05-2.67,.15-3.44,.1-.76,.41-1.64,.95-2.64,.93-1.79,3.52-2.69,7.77-2.69,4.65,0,7.4,1.23,8.27,3.69,.33,1.13,.5,2.86,.5,5.18v55.38c0,1.59-.05,2.76-.15,3.49-.1,.73-.42,1.59-.95,2.59-.93,1.79-3.52,2.69-7.77,2.69-4.65,0-7.37-1.26-8.17-3.79-.4-1.06-.6-2.75-.6-5.08v-55.38Z" style="fill:#c4c2c2;"/><path d="M471.08,104.77c.63-1.16,1.58-1.94,2.84-2.34,1.26-.4,2.84-.6,4.73-.6s3.42,.17,4.58,.5c1.16,.33,2.02,.73,2.59,1.2,.56,.46,.98,1.16,1.25,2.09,.4,1.06,.6,2.76,.6,5.08v55.28c0,1.59-.05,2.76-.15,3.49-.1,.73-.42,1.59-.95,2.59-.93,1.79-3.52,2.69-7.77,2.69-2.59,0-4.38-.2-5.38-.6s-1.83-1.03-2.49-1.89c-14.94-19.92-24.77-32.94-29.49-39.05v32.77c0,1.59-.05,2.76-.15,3.49-.1,.73-.42,1.59-.95,2.59-.93,1.79-3.52,2.69-7.77,2.69s-6.64-.9-7.57-2.69c-.53-1-.85-1.89-.95-2.69s-.15-1.96-.15-3.49v-55.58c0-2.52,.31-4.37,.95-5.53,.63-1.16,1.58-1.94,2.84-2.34,1.26-.4,2.89-.6,4.88-.6s3.57,.18,4.73,.55c1.16,.37,1.98,.78,2.44,1.25,.26,.2,1.03,1.06,2.29,2.59,14.01,19.06,23.37,31.64,28.09,37.75v-33.67c0-2.52,.31-4.37,.95-5.53Z" style="fill:#c4c2c2;"/></g><g><path d="M236.77,73.37h27.09c2.19,0,3.79,.25,4.78,.75s1.66,1.28,1.99,2.34c.33,1.06,.5,2.47,.5,4.23s-.17,3.17-.5,4.23c-.33,1.06-.9,1.79-1.69,2.19-1.26,.67-2.99,1-5.18,1h-35.86c-4.65,0-7.37-1.26-8.17-3.79-.4-1.06-.6-2.75-.6-5.08V23.86c0-1.53,.05-2.67,.15-3.44s.41-1.64,.95-2.64c.93-1.79,3.52-2.69,7.77-2.69,4.65,0,7.4,1.23,8.27,3.69,.33,1.13,.5,2.86,.5,5.18v49.41Z" style="fill:#c4c2c2;"/><path d="M311.88,14.2c9.83,0,18.36,3.55,25.6,10.66,7.24,7.11,10.86,15.92,10.86,26.45s-3.45,19.49-10.36,26.89c-6.91,7.41-15.41,11.11-25.5,11.11s-18.68-3.65-25.75-10.96c-7.07-7.3-10.61-16-10.61-26.1,0-5.51,1-10.67,2.99-15.49s4.65-8.85,7.97-12.1c3.32-3.25,7.14-5.81,11.46-7.67,4.32-1.86,8.77-2.79,13.35-2.79Zm-18.13,37.55c0,5.91,1.91,10.71,5.73,14.39,3.82,3.69,8.08,5.53,12.8,5.53s8.96-1.79,12.75-5.38c3.79-3.59,5.68-8.4,5.68-14.44s-1.91-10.89-5.73-14.54c-3.82-3.65-8.09-5.48-12.8-5.48s-8.96,1.84-12.75,5.53-5.68,8.48-5.68,14.39Z" style="fill:#c4c2c2;"/><path d="M400.43,68.99l1.79-1.29c2.26-1.33,3.85-1.99,4.78-1.99,2.06,0,4.28,1.86,6.67,5.58,1.46,2.33,2.19,4.18,2.19,5.58s-.45,2.56-1.34,3.49c-.9,.93-1.94,1.76-3.14,2.49-1.2,.73-2.34,1.43-3.44,2.09-1.1,.67-3.34,1.53-6.72,2.59-3.39,1.06-6.66,1.59-9.81,1.59s-6.34-.42-9.56-1.25c-3.22-.83-6.54-2.22-9.96-4.18-3.42-1.96-6.49-4.35-9.21-7.17-2.72-2.82-4.96-6.44-6.72-10.86-1.76-4.42-2.64-9.21-2.64-14.39s.86-9.88,2.59-14.09c1.73-4.22,3.93-7.7,6.62-10.46s5.76-5.06,9.21-6.92c6.51-3.59,13.05-5.38,19.62-5.38,3.12,0,6.29,.48,9.51,1.45,3.22,.96,5.66,1.94,7.32,2.94l2.39,1.39c1.2,.73,2.12,1.33,2.79,1.79,1.73,1.39,2.59,2.97,2.59,4.73s-.7,3.6-2.09,5.53c-2.59,3.59-4.92,5.38-6.97,5.38-1.2,0-2.89-.73-5.08-2.19-2.79-2.26-6.51-3.39-11.16-3.39-4.32,0-8.57,1.49-12.75,4.48-1.99,1.46-3.65,3.52-4.98,6.18-1.33,2.66-1.99,5.66-1.99,9.02s.66,6.36,1.99,9.01c1.33,2.66,3.02,4.75,5.08,6.28,4.05,2.92,8.27,4.38,12.65,4.38,2.06,0,4-.26,5.83-.8,1.83-.53,3.14-1.06,3.94-1.59Z" style="fill:#c4c2c2;"/><path d="M488.49,68.29c3.05,2.06,5.25,3.55,6.57,4.48,2.39,1.79,3.59,3.5,3.59,5.13s-1,3.9-2.99,6.82c-1.99,2.92-4.02,4.38-6.08,4.38-1.26,0-3.19-.9-5.78-2.69-.33-.2-1.26-.83-2.79-1.89-1.53-1.06-2.72-1.86-3.59-2.39-6.18,4.78-13.12,7.17-20.82,7.17-10.29,0-18.98-3.65-26.05-10.96-7.07-7.3-10.61-16-10.61-26.1,0-5.51,1-10.67,2.99-15.49s4.65-8.85,7.97-12.1c3.32-3.25,7.14-5.81,11.46-7.67,4.32-1.86,8.77-2.79,13.35-2.79,9.83,0,18.36,3.55,25.6,10.66,7.24,7.11,10.86,16.1,10.86,26.99,0,5.51-1.23,10.99-3.69,16.44Zm-50.9-16.54c0,5.91,1.91,10.71,5.73,14.39,3.82,3.69,8.08,5.53,12.8,5.53s8.96-1.79,12.75-5.38c3.79-3.59,5.68-8.4,5.68-14.44s-1.91-10.89-5.73-14.54c-3.82-3.65-8.09-5.48-12.8-5.48s-8.96,1.84-12.75,5.53-5.68,8.48-5.68,14.39Z" style="fill:#c4c2c2;"/><path d="M552.83,16.49c3.25,2.26,4.88,4.45,4.88,6.57,0,1.26-.76,3.02-2.29,5.28l-21.52,32.17v19.03c0,1.53-.05,2.67-.15,3.44-.1,.76-.42,1.64-.95,2.64-.53,1-1.43,1.69-2.69,2.09-1.26,.4-2.96,.6-5.08,.6s-3.82-.2-5.08-.6c-1.26-.4-2.16-1.11-2.69-2.14-.53-1.03-.85-1.93-.95-2.69-.1-.76-.15-1.94-.15-3.54v-18.83l-21.52-32.17c-1.53-2.26-2.29-4.02-2.29-5.28,0-2.12,1.46-4.17,4.38-6.12,2.92-1.96,5.01-2.94,6.28-2.94s2.26,.27,2.99,.8c1.13,.73,2.32,2.09,3.59,4.08l15.44,24.7,15.44-24.7c1.26-1.99,2.36-3.3,3.29-3.93,.93-.63,2.01-.95,3.24-.95s3.17,.83,5.83,2.49Z" style="fill:#c4c2c2;"/></g></g><g><path d="M278.39,164.49c-1.73-2.12-2.59-4.03-2.59-5.73s1.43-3.93,4.28-6.72c1.66-1.59,3.42-2.39,5.28-2.39s4.45,1.66,7.77,4.98c.93,1.13,2.26,2.21,3.98,3.24,1.73,1.03,3.32,1.54,4.78,1.54,6.18,0,9.26-2.52,9.26-7.57,0-1.53-.85-2.8-2.54-3.84-1.69-1.03-3.8-1.78-6.33-2.24-2.52-.46-5.25-1.21-8.17-2.24-2.92-1.03-5.64-2.24-8.17-3.63-2.52-1.39-4.63-3.6-6.33-6.62-1.69-3.02-2.54-6.66-2.54-10.91,0-5.84,2.17-10.94,6.52-15.29,4.35-4.35,10.28-6.52,17.78-6.52,3.98,0,7.62,.52,10.91,1.54,3.29,1.03,5.56,2.08,6.82,3.14l2.49,1.89c2.06,1.93,3.09,3.55,3.09,4.88s-.8,3.15-2.39,5.48c-2.26,3.32-4.58,4.98-6.97,4.98-1.39,0-3.12-.66-5.18-1.99-.2-.13-.58-.46-1.15-1-.56-.53-1.08-.96-1.54-1.29-1.39-.86-3.17-1.29-5.33-1.29s-3.95,.51-5.38,1.54c-1.43,1.03-2.14,2.46-2.14,4.28s.85,3.3,2.54,4.43,3.8,1.89,6.33,2.29c2.52,.4,5.28,1.01,8.27,1.84,2.99,.83,5.74,1.84,8.27,3.04,2.52,1.2,4.63,3.27,6.33,6.22,1.69,2.96,2.54,6.59,2.54,10.91s-.86,8.12-2.59,11.41c-1.73,3.29-3.99,5.83-6.77,7.62-5.38,3.52-11.12,5.28-17.23,5.28-3.12,0-6.08-.38-8.87-1.15s-5.05-1.71-6.77-2.84c-3.52-2.12-5.98-4.18-7.37-6.18l-.9-1.1Z" style="fill:#c4c2c2; stroke:#fff; stroke-miterlimit:10; stroke-width:29px;"/><path d="M389.25,116.48c1.73,3.52,2.59,7.44,2.59,11.75s-.86,8.22-2.59,11.7c-1.73,3.49-3.95,6.26-6.67,8.32-5.51,4.25-11.22,6.38-17.13,6.38h-12.45v11.26c0,1.53-.05,2.67-.15,3.44-.1,.76-.42,1.64-.95,2.64-.93,1.79-3.52,2.69-7.77,2.69-4.65,0-7.37-1.23-8.17-3.69-.4-1.13-.6-2.85-.6-5.18v-55.28c0-1.53,.05-2.67,.15-3.44,.1-.76,.41-1.64,.95-2.64,.93-1.79,3.52-2.69,7.77-2.69h21.32c5.84,0,11.52,2.12,17.03,6.38,2.72,2.06,4.95,4.85,6.67,8.37Zm-17.83,18.33c1.93-1.46,2.89-3.65,2.89-6.57s-.96-5.13-2.89-6.62c-1.93-1.49-3.92-2.24-5.98-2.24h-12.45v17.63h12.55c1.99,0,3.95-.73,5.88-2.19Z" style="fill:#c4c2c2; stroke:#fff; stroke-miterlimit:10; stroke-width:29px;"/><path d="M398.32,110.5c0-1.53,.05-2.67,.15-3.44,.1-.76,.41-1.64,.95-2.64,.93-1.79,3.52-2.69,7.77-2.69,4.65,0,7.4,1.23,8.27,3.69,.33,1.13,.5,2.86,.5,5.18v55.38c0,1.59-.05,2.76-.15,3.49-.1,.73-.42,1.59-.95,2.59-.93,1.79-3.52,2.69-7.77,2.69-4.65,0-7.37-1.26-8.17-3.79-.4-1.06-.6-2.75-.6-5.08v-55.38Z" style="fill:#c4c2c2; stroke:#fff; stroke-miterlimit:10; stroke-width:29px;"/><path d="M471.08,104.77c.63-1.16,1.58-1.94,2.84-2.34,1.26-.4,2.84-.6,4.73-.6s3.42,.17,4.58,.5c1.16,.33,2.02,.73,2.59,1.2,.56,.46,.98,1.16,1.25,2.09,.4,1.06,.6,2.76,.6,5.08v55.28c0,1.59-.05,2.76-.15,3.49-.1,.73-.42,1.59-.95,2.59-.93,1.79-3.52,2.69-7.77,2.69-2.59,0-4.38-.2-5.38-.6s-1.83-1.03-2.49-1.89c-14.94-19.92-24.77-32.94-29.49-39.05v32.77c0,1.59-.05,2.76-.15,3.49-.1,.73-.42,1.59-.95,2.59-.93,1.79-3.52,2.69-7.77,2.69s-6.64-.9-7.57-2.69c-.53-1-.85-1.89-.95-2.69s-.15-1.96-.15-3.49v-55.58c0-2.52,.31-4.37,.95-5.53,.63-1.16,1.58-1.94,2.84-2.34,1.26-.4,2.89-.6,4.88-.6s3.57,.18,4.73,.55c1.16,.37,1.98,.78,2.44,1.25,.26,.2,1.03,1.06,2.29,2.59,14.01,19.06,23.37,31.64,28.09,37.75v-33.67c0-2.52,.31-4.37,.95-5.53Z" style="fill:#c4c2c2; stroke:#fff; stroke-miterlimit:10; stroke-width:29px;"/></g><g><path d="M236.77,73.37h27.09c2.19,0,3.79,.25,4.78,.75s1.66,1.28,1.99,2.34c.33,1.06,.5,2.47,.5,4.23s-.17,3.17-.5,4.23c-.33,1.06-.9,1.79-1.69,2.19-1.26,.67-2.99,1-5.18,1h-35.86c-4.65,0-7.37-1.26-8.17-3.79-.4-1.06-.6-2.75-.6-5.08V23.86c0-1.53,.05-2.67,.15-3.44s.41-1.64,.95-2.64c.93-1.79,3.52-2.69,7.77-2.69,4.65,0,7.4,1.23,8.27,3.69,.33,1.13,.5,2.86,.5,5.18v49.41Z" style="fill:#c4c2c2; stroke:#fff; stroke-miterlimit:10; stroke-width:28px;"/><path d="M311.88,14.2c9.83,0,18.36,3.55,25.6,10.66,7.24,7.11,10.86,15.92,10.86,26.45s-3.45,19.49-10.36,26.89c-6.91,7.41-15.41,11.11-25.5,11.11s-18.68-3.65-25.75-10.96c-7.07-7.3-10.61-16-10.61-26.1,0-5.51,1-10.67,2.99-15.49s4.65-8.85,7.97-12.1c3.32-3.25,7.14-5.81,11.46-7.67,4.32-1.86,8.77-2.79,13.35-2.79Zm-18.13,37.55c0,5.91,1.91,10.71,5.73,14.39,3.82,3.69,8.08,5.53,12.8,5.53s8.96-1.79,12.75-5.38c3.79-3.59,5.68-8.4,5.68-14.44s-1.91-10.89-5.73-14.54c-3.82-3.65-8.09-5.48-12.8-5.48s-8.96,1.84-12.75,5.53-5.68,8.48-5.68,14.39Z" style="fill:#c4c2c2; stroke:#fff; stroke-miterlimit:10; stroke-width:28px;"/><path d="M400.43,68.99l1.79-1.29c2.26-1.33,3.85-1.99,4.78-1.99,2.06,0,4.28,1.86,6.67,5.58,1.46,2.33,2.19,4.18,2.19,5.58s-.45,2.56-1.34,3.49c-.9,.93-1.94,1.76-3.14,2.49-1.2,.73-2.34,1.43-3.44,2.09-1.1,.67-3.34,1.53-6.72,2.59-3.39,1.06-6.66,1.59-9.81,1.59s-6.34-.42-9.56-1.25c-3.22-.83-6.54-2.22-9.96-4.18-3.42-1.96-6.49-4.35-9.21-7.17-2.72-2.82-4.96-6.44-6.72-10.86-1.76-4.42-2.64-9.21-2.64-14.39s.86-9.88,2.59-14.09c1.73-4.22,3.93-7.7,6.62-10.46s5.76-5.06,9.21-6.92c6.51-3.59,13.05-5.38,19.62-5.38,3.12,0,6.29,.48,9.51,1.45,3.22,.96,5.66,1.94,7.32,2.94l2.39,1.39c1.2,.73,2.12,1.33,2.79,1.79,1.73,1.39,2.59,2.97,2.59,4.73s-.7,3.6-2.09,5.53c-2.59,3.59-4.92,5.38-6.97,5.38-1.2,0-2.89-.73-5.08-2.19-2.79-2.26-6.51-3.39-11.16-3.39-4.32,0-8.57,1.49-12.75,4.48-1.99,1.46-3.65,3.52-4.98,6.18-1.33,2.66-1.99,5.66-1.99,9.02s.66,6.36,1.99,9.01c1.33,2.66,3.02,4.75,5.08,6.28,4.05,2.92,8.27,4.38,12.65,4.38,2.06,0,4-.26,5.83-.8,1.83-.53,3.14-1.06,3.94-1.59Z" style="fill:#c4c2c2; stroke:#fff; stroke-miterlimit:10; stroke-width:28px;"/><path d="M488.49,68.29c3.05,2.06,5.25,3.55,6.57,4.48,2.39,1.79,3.59,3.5,3.59,5.13s-1,3.9-2.99,6.82c-1.99,2.92-4.02,4.38-6.08,4.38-1.26,0-3.19-.9-5.78-2.69-.33-.2-1.26-.83-2.79-1.89-1.53-1.06-2.72-1.86-3.59-2.39-6.18,4.78-13.12,7.17-20.82,7.17-10.29,0-18.98-3.65-26.05-10.96-7.07-7.3-10.61-16-10.61-26.1,0-5.51,1-10.67,2.99-15.49s4.65-8.85,7.97-12.1c3.32-3.25,7.14-5.81,11.46-7.67,4.32-1.86,8.77-2.79,13.35-2.79,9.83,0,18.36,3.55,25.6,10.66,7.24,7.11,10.86,16.1,10.86,26.99,0,5.51-1.23,10.99-3.69,16.44Zm-50.9-16.54c0,5.91,1.91,10.71,5.73,14.39,3.82,3.69,8.08,5.53,12.8,5.53s8.96-1.79,12.75-5.38c3.79-3.59,5.68-8.4,5.68-14.44s-1.91-10.89-5.73-14.54c-3.82-3.65-8.09-5.48-12.8-5.48s-8.96,1.84-12.75,5.53-5.68,8.48-5.68,14.39Z" style="fill:#c4c2c2; stroke:#fff; stroke-miterlimit:10; stroke-width:28px;"/><path d="M552.83,16.49c3.25,2.26,4.88,4.45,4.88,6.57,0,1.26-.76,3.02-2.29,5.28l-21.52,32.17v19.03c0,1.53-.05,2.67-.15,3.44-.1,.76-.42,1.64-.95,2.64-.53,1-1.43,1.69-2.69,2.09-1.26,.4-2.96,.6-5.08,.6s-3.82-.2-5.08-.6c-1.26-.4-2.16-1.11-2.69-2.14-.53-1.03-.85-1.93-.95-2.69-.1-.76-.15-1.94-.15-3.54v-18.83l-21.52-32.17c-1.53-2.26-2.29-4.02-2.29-5.28,0-2.12,1.46-4.17,4.38-6.12,2.92-1.96,5.01-2.94,6.28-2.94s2.26,.27,2.99,.8c1.13,.73,2.32,2.09,3.59,4.08l15.44,24.7,15.44-24.7c1.26-1.99,2.36-3.3,3.29-3.93,.93-.63,2.01-.95,3.24-.95s3.17,.83,5.83,2.49Z" style="fill:#c4c2c2; stroke:#fff; stroke-miterlimit:10; stroke-width:28px;"/></g><g><path d="M233.46,76.68h27.09c2.19,0,3.79,.25,4.78,.75s1.66,1.28,1.99,2.34c.33,1.06,.5,2.47,.5,4.23s-.17,3.17-.5,4.23c-.33,1.06-.9,1.79-1.69,2.19-1.26,.66-2.99,1-5.18,1h-35.86c-4.65,0-7.37-1.26-8.17-3.79-.4-1.06-.6-2.76-.6-5.08V27.18c0-1.53,.05-2.67,.15-3.44,.1-.76,.41-1.64,.95-2.64,.93-1.79,3.52-2.69,7.77-2.69,4.65,0,7.4,1.23,8.27,3.69,.33,1.13,.5,2.86,.5,5.18v49.41Z" style="fill:#aa6d0b;"/><path d="M308.56,17.51c9.83,0,18.36,3.55,25.6,10.66,7.24,7.11,10.86,15.92,10.86,26.45s-3.45,19.49-10.36,26.89c-6.91,7.41-15.41,11.11-25.5,11.11s-18.68-3.65-25.75-10.96-10.61-16-10.61-26.1c0-5.51,1-10.67,2.99-15.49,1.99-4.81,4.65-8.85,7.97-12.1,3.32-3.25,7.14-5.81,11.46-7.67,4.32-1.86,8.77-2.79,13.35-2.79Zm-18.13,37.55c0,5.91,1.91,10.71,5.73,14.39,3.82,3.69,8.08,5.53,12.8,5.53s8.96-1.79,12.75-5.38c3.79-3.59,5.68-8.4,5.68-14.44s-1.91-10.89-5.73-14.54c-3.82-3.65-8.09-5.48-12.8-5.48s-8.96,1.84-12.75,5.53-5.68,8.48-5.68,14.39Z" style="fill:#aa6d0b;"/><path d="M397.12,72.3l1.79-1.29c2.26-1.33,3.85-1.99,4.78-1.99,2.06,0,4.28,1.86,6.67,5.58,1.46,2.32,2.19,4.18,2.19,5.58s-.45,2.56-1.34,3.49-1.94,1.76-3.14,2.49-2.34,1.43-3.44,2.09-3.34,1.53-6.72,2.59c-3.39,1.06-6.66,1.59-9.81,1.59s-6.34-.42-9.56-1.25c-3.22-.83-6.54-2.22-9.96-4.18-3.42-1.96-6.49-4.35-9.21-7.17-2.72-2.82-4.96-6.44-6.72-10.86-1.76-4.42-2.64-9.21-2.64-14.39s.86-9.88,2.59-14.09c1.73-4.22,3.93-7.7,6.62-10.46,2.69-2.75,5.76-5.06,9.21-6.92,6.51-3.59,13.05-5.38,19.62-5.38,3.12,0,6.29,.48,9.51,1.45,3.22,.96,5.66,1.94,7.32,2.94l2.39,1.39c1.2,.73,2.12,1.33,2.79,1.79,1.73,1.39,2.59,2.97,2.59,4.73s-.7,3.6-2.09,5.53c-2.59,3.59-4.92,5.38-6.97,5.38-1.2,0-2.89-.73-5.08-2.19-2.79-2.26-6.51-3.39-11.16-3.39-4.32,0-8.57,1.49-12.75,4.48-1.99,1.46-3.65,3.52-4.98,6.18-1.33,2.66-1.99,5.66-1.99,9.01s.66,6.36,1.99,9.01c1.33,2.66,3.02,4.75,5.08,6.28,4.05,2.92,8.27,4.38,12.65,4.38,2.06,0,4-.27,5.83-.8,1.83-.53,3.14-1.06,3.94-1.59Z" style="fill:#aa6d0b;"/><path d="M485.17,71.6c3.05,2.06,5.25,3.55,6.57,4.48,2.39,1.79,3.59,3.5,3.59,5.13s-1,3.9-2.99,6.82-4.02,4.38-6.08,4.38c-1.26,0-3.19-.9-5.78-2.69-.33-.2-1.26-.83-2.79-1.89-1.53-1.06-2.72-1.86-3.59-2.39-6.18,4.78-13.12,7.17-20.82,7.17-10.29,0-18.98-3.65-26.05-10.96s-10.61-16-10.61-26.1c0-5.51,1-10.67,2.99-15.49,1.99-4.81,4.65-8.85,7.97-12.1,3.32-3.25,7.14-5.81,11.46-7.67,4.32-1.86,8.77-2.79,13.35-2.79,9.83,0,18.36,3.55,25.6,10.66,7.24,7.11,10.86,16.1,10.86,26.99,0,5.51-1.23,10.99-3.69,16.44Zm-50.9-16.54c0,5.91,1.91,10.71,5.73,14.39,3.82,3.69,8.08,5.53,12.8,5.53s8.96-1.79,12.75-5.38c3.79-3.59,5.68-8.4,5.68-14.44s-1.91-10.89-5.73-14.54c-3.82-3.65-8.09-5.48-12.8-5.48s-8.96,1.84-12.75,5.53-5.68,8.48-5.68,14.39Z" style="fill:#aa6d0b;"/><path d="M549.52,19.81c3.25,2.26,4.88,4.45,4.88,6.57,0,1.26-.76,3.02-2.29,5.28l-21.52,32.17v19.03c0,1.53-.05,2.67-.15,3.44-.1,.76-.42,1.64-.95,2.64-.53,1-1.43,1.69-2.69,2.09-1.26,.4-2.96,.6-5.08,.6s-3.82-.2-5.08-.6c-1.26-.4-2.16-1.11-2.69-2.14-.53-1.03-.85-1.92-.95-2.69-.1-.76-.15-1.94-.15-3.54v-18.83l-21.52-32.17c-1.53-2.26-2.29-4.02-2.29-5.28,0-2.12,1.46-4.17,4.38-6.13,2.92-1.96,5.01-2.94,6.28-2.94s2.26,.27,2.99,.8c1.13,.73,2.32,2.09,3.59,4.08l15.44,24.7,15.44-24.7c1.26-1.99,2.36-3.3,3.29-3.93,.93-.63,2.01-.95,3.24-.95s3.17,.83,5.83,2.49Z" style="fill:#aa6d0b;"/></g><g><path d="M275.07,167.8c-1.73-2.12-2.59-4.03-2.59-5.73s1.43-3.93,4.28-6.72c1.66-1.59,3.42-2.39,5.28-2.39s4.45,1.66,7.77,4.98c.93,1.13,2.26,2.21,3.98,3.24,1.73,1.03,3.32,1.54,4.78,1.54,6.18,0,9.26-2.52,9.26-7.57,0-1.53-.85-2.8-2.54-3.83-1.69-1.03-3.8-1.78-6.33-2.24-2.52-.46-5.25-1.21-8.17-2.24-2.92-1.03-5.64-2.24-8.17-3.64-2.52-1.39-4.63-3.6-6.33-6.62s-2.54-6.66-2.54-10.91c0-5.84,2.17-10.94,6.52-15.29,4.35-4.35,10.28-6.53,17.78-6.53,3.98,0,7.62,.52,10.91,1.54s5.56,2.08,6.82,3.14l2.49,1.89c2.06,1.93,3.09,3.55,3.09,4.88s-.8,3.16-2.39,5.48c-2.26,3.32-4.58,4.98-6.97,4.98-1.39,0-3.12-.66-5.18-1.99-.2-.13-.58-.46-1.15-1-.56-.53-1.08-.96-1.54-1.29-1.39-.86-3.17-1.29-5.33-1.29s-3.95,.52-5.38,1.54c-1.43,1.03-2.14,2.46-2.14,4.28s.85,3.3,2.54,4.43c1.69,1.13,3.8,1.89,6.33,2.29,2.52,.4,5.28,1.01,8.27,1.84s5.74,1.84,8.27,3.04c2.52,1.2,4.63,3.27,6.33,6.23s2.54,6.59,2.54,10.91-.86,8.12-2.59,11.41c-1.73,3.29-3.99,5.83-6.77,7.62-5.38,3.52-11.12,5.28-17.23,5.28-3.12,0-6.08-.38-8.87-1.15s-5.05-1.71-6.77-2.84c-3.52-2.12-5.98-4.18-7.37-6.18l-.9-1.1Z" style="fill:#aa6d0b;"/><path d="M385.94,119.79c1.73,3.52,2.59,7.44,2.59,11.75s-.86,8.22-2.59,11.71c-1.73,3.49-3.95,6.26-6.67,8.32-5.51,4.25-11.22,6.38-17.13,6.38h-12.45v11.26c0,1.53-.05,2.67-.15,3.44-.1,.76-.42,1.64-.95,2.64-.93,1.79-3.52,2.69-7.77,2.69-4.65,0-7.37-1.23-8.17-3.69-.4-1.13-.6-2.85-.6-5.18v-55.28c0-1.53,.05-2.67,.15-3.44s.41-1.64,.95-2.64c.93-1.79,3.52-2.69,7.77-2.69h21.32c5.84,0,11.52,2.13,17.03,6.38,2.72,2.06,4.95,4.85,6.67,8.37Zm-17.83,18.33c1.93-1.46,2.89-3.65,2.89-6.57s-.96-5.13-2.89-6.62c-1.93-1.49-3.92-2.24-5.98-2.24h-12.45v17.63h12.55c1.99,0,3.95-.73,5.88-2.19Z" style="fill:#aa6d0b;"/><path d="M395,113.81c0-1.53,.05-2.67,.15-3.44s.41-1.64,.95-2.64c.93-1.79,3.52-2.69,7.77-2.69,4.65,0,7.4,1.23,8.27,3.69,.33,1.13,.5,2.86,.5,5.18v55.38c0,1.59-.05,2.76-.15,3.49-.1,.73-.42,1.59-.95,2.59-.93,1.79-3.52,2.69-7.77,2.69-4.65,0-7.37-1.26-8.17-3.79-.4-1.06-.6-2.75-.6-5.08v-55.38Z" style="fill:#aa6d0b;"/><path d="M467.77,108.09c.63-1.16,1.58-1.94,2.84-2.34,1.26-.4,2.84-.6,4.73-.6s3.42,.17,4.58,.5c1.16,.33,2.02,.73,2.59,1.2,.56,.47,.98,1.16,1.25,2.09,.4,1.06,.6,2.76,.6,5.08v55.28c0,1.59-.05,2.76-.15,3.49-.1,.73-.42,1.59-.95,2.59-.93,1.79-3.52,2.69-7.77,2.69-2.59,0-4.38-.2-5.38-.6s-1.83-1.03-2.49-1.89c-14.94-19.92-24.77-32.94-29.49-39.05v32.77c0,1.59-.05,2.76-.15,3.49-.1,.73-.42,1.59-.95,2.59-.93,1.79-3.52,2.69-7.77,2.69s-6.64-.9-7.57-2.69c-.53-1-.85-1.89-.95-2.69s-.15-1.96-.15-3.49v-55.58c0-2.52,.31-4.37,.95-5.53,.63-1.16,1.58-1.94,2.84-2.34,1.26-.4,2.89-.6,4.88-.6s3.57,.18,4.73,.55c1.16,.37,1.98,.78,2.44,1.24,.26,.2,1.03,1.06,2.29,2.59,14.01,19.06,23.37,31.64,28.09,37.75v-33.67c0-2.52,.31-4.37,.95-5.53Z" style="fill:#aa6d0b;"/></g><g><path d="M278.88,164.49c-1.73-2.12-2.59-4.03-2.59-5.73s1.43-3.93,4.28-6.72c1.66-1.59,3.42-2.39,5.28-2.39s4.45,1.66,7.77,4.98c.93,1.13,2.26,2.21,3.98,3.24,1.73,1.03,3.32,1.54,4.78,1.54,6.18,0,9.26-2.52,9.26-7.57,0-1.53-.85-2.8-2.54-3.84-1.69-1.03-3.8-1.78-6.33-2.24-2.52-.46-5.25-1.21-8.17-2.24-2.92-1.03-5.64-2.24-8.17-3.63-2.52-1.39-4.63-3.6-6.33-6.62-1.69-3.02-2.54-6.66-2.54-10.91,0-5.84,2.17-10.94,6.52-15.29,4.35-4.35,10.28-6.52,17.78-6.52,3.98,0,7.62,.52,10.91,1.54,3.29,1.03,5.56,2.08,6.82,3.14l2.49,1.89c2.06,1.93,3.09,3.55,3.09,4.88s-.8,3.15-2.39,5.48c-2.26,3.32-4.58,4.98-6.97,4.98-1.39,0-3.12-.66-5.18-1.99-.2-.13-.58-.46-1.15-1-.56-.53-1.08-.96-1.54-1.29-1.39-.86-3.17-1.29-5.33-1.29s-3.95,.51-5.38,1.54c-1.43,1.03-2.14,2.46-2.14,4.28s.85,3.3,2.54,4.43,3.8,1.89,6.33,2.29c2.52,.4,5.28,1.01,8.27,1.84,2.99,.83,5.74,1.84,8.27,3.04,2.52,1.2,4.63,3.27,6.33,6.22,1.69,2.96,2.54,6.59,2.54,10.91s-.86,8.12-2.59,11.41c-1.73,3.29-3.99,5.83-6.77,7.62-5.38,3.52-11.12,5.28-17.23,5.28-3.12,0-6.08-.38-8.87-1.15s-5.05-1.71-6.77-2.84c-3.52-2.12-5.98-4.18-7.37-6.18l-.9-1.1Z" style="fill:#efab11;"/><path d="M389.74,116.48c1.73,3.52,2.59,7.44,2.59,11.75s-.86,8.22-2.59,11.7c-1.73,3.49-3.95,6.26-6.67,8.32-5.51,4.25-11.22,6.38-17.13,6.38h-12.45v11.26c0,1.53-.05,2.67-.15,3.44-.1,.76-.42,1.64-.95,2.64-.93,1.79-3.52,2.69-7.77,2.69-4.65,0-7.37-1.23-8.17-3.69-.4-1.13-.6-2.85-.6-5.18v-55.28c0-1.53,.05-2.67,.15-3.44,.1-.76,.41-1.64,.95-2.64,.93-1.79,3.52-2.69,7.77-2.69h21.32c5.84,0,11.52,2.12,17.03,6.38,2.72,2.06,4.95,4.85,6.67,8.37Zm-17.83,18.33c1.93-1.46,2.89-3.65,2.89-6.57s-.96-5.13-2.89-6.62c-1.93-1.49-3.92-2.24-5.98-2.24h-12.45v17.63h12.55c1.99,0,3.95-.73,5.88-2.19Z" style="fill:#efab11;"/><path d="M398.81,110.5c0-1.53,.05-2.67,.15-3.44,.1-.76,.41-1.64,.95-2.64,.93-1.79,3.52-2.69,7.77-2.69,4.65,0,7.4,1.23,8.27,3.69,.33,1.13,.5,2.86,.5,5.18v55.38c0,1.59-.05,2.76-.15,3.49-.1,.73-.42,1.59-.95,2.59-.93,1.79-3.52,2.69-7.77,2.69-4.65,0-7.37-1.26-8.17-3.79-.4-1.06-.6-2.75-.6-5.08v-55.38Z" style="fill:#efab11;"/><path d="M471.57,104.77c.63-1.16,1.58-1.94,2.84-2.34,1.26-.4,2.84-.6,4.73-.6s3.42,.17,4.58,.5c1.16,.33,2.02,.73,2.59,1.2,.56,.46,.98,1.16,1.25,2.09,.4,1.06,.6,2.76,.6,5.08v55.28c0,1.59-.05,2.76-.15,3.49-.1,.73-.42,1.59-.95,2.59-.93,1.79-3.52,2.69-7.77,2.69-2.59,0-4.38-.2-5.38-.6s-1.83-1.03-2.49-1.89c-14.94-19.92-24.77-32.94-29.49-39.05v32.77c0,1.59-.05,2.76-.15,3.49-.1,.73-.42,1.59-.95,2.59-.93,1.79-3.52,2.69-7.77,2.69s-6.64-.9-7.57-2.69c-.53-1-.85-1.89-.95-2.69s-.15-1.96-.15-3.49v-55.58c0-2.52,.31-4.37,.95-5.53,.63-1.16,1.58-1.94,2.84-2.34,1.26-.4,2.89-.6,4.88-.6s3.57,.18,4.73,.55c1.16,.37,1.98,.78,2.44,1.25,.26,.2,1.03,1.06,2.29,2.59,14.01,19.06,23.37,31.64,28.09,37.75v-33.67c0-2.52,.31-4.37,.95-5.53Z" style="fill:#efab11;"/></g><path d="M464.22,54.83h6.37c2.98,0,5.39,2.42,5.39,5.39v21.22h-17.15v-21.22c0-2.98,2.42-5.39,5.39-5.39Z" transform="translate(156.26 423.53) rotate(-57.09)" style="fill:#7c7b7b;"/><g><path d="M238.11,73.37h27.09c2.19,0,3.79,.25,4.78,.75s1.66,1.28,1.99,2.34c.33,1.06,.5,2.47,.5,4.23s-.17,3.17-.5,4.23c-.33,1.06-.9,1.79-1.69,2.19-1.26,.67-2.99,1-5.18,1h-35.86c-4.65,0-7.37-1.26-8.17-3.79-.4-1.06-.6-2.75-.6-5.08V23.86c0-1.53,.05-2.67,.15-3.44s.41-1.64,.95-2.64c.93-1.79,3.52-2.69,7.77-2.69,4.65,0,7.4,1.23,8.27,3.69,.33,1.13,.5,2.86,.5,5.18v49.41Z" style="fill:#efab11;"/><path d="M313.21,14.2c9.83,0,18.36,3.55,25.6,10.66,7.24,7.11,10.86,15.92,10.86,26.45s-3.45,19.49-10.36,26.89c-6.91,7.41-15.41,11.11-25.5,11.11s-18.68-3.65-25.75-10.96c-7.07-7.3-10.61-16-10.61-26.1,0-5.51,1-10.67,2.99-15.49s4.65-8.85,7.97-12.1c3.32-3.25,7.14-5.81,11.46-7.67,4.32-1.86,8.77-2.79,13.35-2.79Zm-18.13,37.55c0,5.91,1.91,10.71,5.73,14.39,3.82,3.69,8.08,5.53,12.8,5.53s8.96-1.79,12.75-5.38c3.79-3.59,5.68-8.4,5.68-14.44s-1.91-10.89-5.73-14.54c-3.82-3.65-8.09-5.48-12.8-5.48s-8.96,1.84-12.75,5.53-5.68,8.48-5.68,14.39Z" style="fill:#efab11;"/><path d="M401.77,68.99l1.79-1.29c2.26-1.33,3.85-1.99,4.78-1.99,2.06,0,4.28,1.86,6.67,5.58,1.46,2.33,2.19,4.18,2.19,5.58s-.45,2.56-1.34,3.49c-.9,.93-1.94,1.76-3.14,2.49-1.2,.73-2.34,1.43-3.44,2.09-1.1,.67-3.34,1.53-6.72,2.59-3.39,1.06-6.66,1.59-9.81,1.59s-6.34-.42-9.56-1.25c-3.22-.83-6.54-2.22-9.96-4.18-3.42-1.96-6.49-4.35-9.21-7.17-2.72-2.82-4.96-6.44-6.72-10.86-1.76-4.42-2.64-9.21-2.64-14.39s.86-9.88,2.59-14.09c1.73-4.22,3.93-7.7,6.62-10.46s5.76-5.06,9.21-6.92c6.51-3.59,13.05-5.38,19.62-5.38,3.12,0,6.29,.48,9.51,1.45,3.22,.96,5.66,1.94,7.32,2.94l2.39,1.39c1.2,.73,2.12,1.33,2.79,1.79,1.73,1.39,2.59,2.97,2.59,4.73s-.7,3.6-2.09,5.53c-2.59,3.59-4.92,5.38-6.97,5.38-1.2,0-2.89-.73-5.08-2.19-2.79-2.26-6.51-3.39-11.16-3.39-4.32,0-8.57,1.49-12.75,4.48-1.99,1.46-3.65,3.52-4.98,6.18-1.33,2.66-1.99,5.66-1.99,9.02s.66,6.36,1.99,9.01c1.33,2.66,3.02,4.75,5.08,6.28,4.05,2.92,8.27,4.38,12.65,4.38,2.06,0,4-.26,5.83-.8,1.83-.53,3.14-1.06,3.94-1.59Z" style="fill:#efab11;"/><path d="M489.82,68.29c3.05,2.06,5.25,3.55,6.57,4.48,2.39,1.79,3.59,3.5,3.59,5.13s-1,3.9-2.99,6.82c-1.99,2.92-4.02,4.38-6.08,4.38-1.26,0-3.19-.9-5.78-2.69-.33-.2-1.26-.83-2.79-1.89-1.53-1.06-2.72-1.86-3.59-2.39-6.18,4.78-13.12,7.17-20.82,7.17-10.29,0-18.98-3.65-26.05-10.96-7.07-7.3-10.61-16-10.61-26.1,0-5.51,1-10.67,2.99-15.49s4.65-8.85,7.97-12.1c3.32-3.25,7.14-5.81,11.46-7.67,4.32-1.86,8.77-2.79,13.35-2.79,9.83,0,18.36,3.55,25.6,10.66,7.24,7.11,10.86,16.1,10.86,26.99,0,5.51-1.23,10.99-3.69,16.44Zm-50.9-16.54c0,5.91,1.91,10.71,5.73,14.39,3.82,3.69,8.08,5.53,12.8,5.53s8.96-1.79,12.75-5.38c3.79-3.59,5.68-8.4,5.68-14.44s-1.91-10.89-5.73-14.54c-3.82-3.65-8.09-5.48-12.8-5.48s-8.96,1.84-12.75,5.53-5.68,8.48-5.68,14.39Z" style="fill:#efab11;"/><path d="M554.17,16.49c3.25,2.26,4.88,4.45,4.88,6.57,0,1.26-.76,3.02-2.29,5.28l-21.52,32.17v19.03c0,1.53-.05,2.67-.15,3.44-.1,.76-.42,1.64-.95,2.64-.53,1-1.43,1.69-2.69,2.09-1.26,.4-2.96,.6-5.08,.6s-3.82-.2-5.08-.6c-1.26-.4-2.16-1.11-2.69-2.14-.53-1.03-.85-1.93-.95-2.69-.1-.76-.15-1.94-.15-3.54v-18.83l-21.52-32.17c-1.53-2.26-2.29-4.02-2.29-5.28,0-2.12,1.46-4.17,4.38-6.12,2.92-1.96,5.01-2.94,6.28-2.94s2.26,.27,2.99,.8c1.13,.73,2.32,2.09,3.59,4.08l15.44,24.7,15.44-24.7c1.26-1.99,2.36-3.3,3.29-3.93,.93-.63,2.01-.95,3.24-.95s3.17,.83,5.83,2.49Z" style="fill:#efab11;"/></g><path d="M467.57,54.24h6.37c2.98,0,5.39,2.42,5.39,5.39v21.22h-17.15v-21.22c0-2.98,2.42-5.39,5.39-5.39Z" transform="translate(158.29 426.08) rotate(-57.09)" style="fill:#efab11;"/></g><g><circle cx="229.21" cy="24.01" r="3.57" style="fill:#fff; opacity:.36;"/><circle cx="229.21" cy="23.96" r="2.53" style="fill:#fff;"/></g><rect x="549.06" y="37.96" width="8.68" height="8.68" style="fill:#fff;"/><g><circle cx="229.21" cy="39.82" r="3.57" style="fill:#fff; opacity:.36;"/><circle cx="229.21" cy="39.76" r="2.53" style="fill:#fff;"/></g><g><circle cx="229.21" cy="55.63" r="3.57" style="fill:#fff; opacity:.36;"/><circle cx="229.21" cy="55.57" r="2.53" style="fill:#fff;"/></g><g><circle cx="229.21" cy="71.49" r="3.57" style="fill:#fff; opacity:.36;"/><circle cx="229.21" cy="71.44" r="2.53" style="fill:#fff;"/></g><g><circle cx="230.55" cy="81.42" r="3.57" style="fill:#fff; opacity:.36;"/><circle cx="230.55" cy="81.37" r="2.53" style="fill:#fff;"/></g><g><circle cx="246.36" cy="81.42" r="3.57" style="fill:#fff; opacity:.36;"/><circle cx="246.36" cy="81.37" r="2.53" style="fill:#fff;"/></g><g><circle cx="262.17" cy="81.42" r="3.57" style="fill:#fff; opacity:.36;"/><circle cx="262.17" cy="81.37" r="2.53" style="fill:#fff;"/></g><g><g><circle cx="311.65" cy="22.81" r="3.57" style="fill:#fff; opacity:.36;"/><circle cx="311.65" cy="22.76" r="2.53" style="fill:#fff;"/></g><g><circle cx="311.65" cy="81.52" r="3.57" style="fill:#fff; opacity:.36;"/><circle cx="311.65" cy="81.47" r="2.53" style="fill:#fff;"/></g><g><circle cx="338.66" cy="53.89" r="3.57" style="fill:#fff; opacity:.36;"/><circle cx="338.66" cy="53.83" r="2.53" style="fill:#fff;"/></g><g><circle cx="283.7" cy="53.89" r="3.57" style="fill:#fff; opacity:.36;"/><circle cx="283.7" cy="53.83" r="2.53" style="fill:#fff;"/></g><g><circle cx="288.52" cy="66.93" r="3.57" style="fill:#fff; opacity:.36;"/><circle cx="288.52" cy="66.87" r="2.53" style="fill:#fff;"/></g><g><circle cx="297.99" cy="76.71" r="3.57" style="fill:#fff; opacity:.36;"/><circle cx="297.99" cy="76.65" r="2.53" style="fill:#fff;"/></g><g><circle cx="325.76" cy="76.71" r="3.57" style="fill:#fff; opacity:.36;"/><circle cx="325.76" cy="76.65" r="2.53" style="fill:#fff;"/></g><g><circle cx="335.1" cy="67.39" r="3.57" style="fill:#fff; opacity:.36;"/><circle cx="335.1" cy="67.34" r="2.53" style="fill:#fff;"/></g><g><circle cx="336.13" cy="39.82" r="3.57" style="fill:#fff; opacity:.36;"/><circle cx="336.13" cy="39.76" r="2.53" style="fill:#fff;"/></g><g><circle cx="326.79" cy="27.58" r="3.57" style="fill:#fff; opacity:.36;"/><circle cx="326.79" cy="27.52" r="2.53" style="fill:#fff;"/></g><g><circle cx="296.31" cy="26.38" r="3.57" style="fill:#fff; opacity:.36;"/><circle cx="296.31" cy="26.32" r="2.53" style="fill:#fff;"/></g><g><circle cx="287.27" cy="37.23" r="3.57" style="fill:#fff; opacity:.36;"/><circle cx="287.27" cy="37.18" r="2.53" style="fill:#fff;"/></g></g><g><g><circle cx="390.36" cy="22.81" r="3.57" style="fill:#fff; opacity:.36;"/><circle cx="390.36" cy="22.76" r="2.53" style="fill:#fff;"/></g><g><circle cx="390.36" cy="81.52" r="3.57" style="fill:#fff; opacity:.36;"/><circle cx="390.36" cy="81.47" r="2.53" style="fill:#fff;"/></g><g><circle cx="362.41" cy="53.89" r="3.57" style="fill:#fff; opacity:.36;"/><circle cx="362.41" cy="53.83" r="2.53" style="fill:#fff;"/></g><g><circle cx="367.22" cy="66.93" r="3.57" style="fill:#fff; opacity:.36;"/><circle cx="367.22" cy="66.87" r="2.53" style="fill:#fff;"/></g><g><circle cx="376.69" cy="76.71" r="3.57" style="fill:#fff; opacity:.36;"/><circle cx="376.69" cy="76.65" r="2.53" style="fill:#fff;"/></g><g><circle cx="404.47" cy="76.71" r="3.57" style="fill:#fff; opacity:.36;"/><circle cx="404.47" cy="76.65" r="2.53" style="fill:#fff;"/></g><g><circle cx="405.5" cy="27.58" r="3.57" style="fill:#fff; opacity:.36;"/><circle cx="405.5" cy="27.52" r="2.53" style="fill:#fff;"/></g><g><circle cx="375.02" cy="26.38" r="3.57" style="fill:#fff; opacity:.36;"/><circle cx="375.02" cy="26.32" r="2.53" style="fill:#fff;"/></g><g><circle cx="365.98" cy="37.23" r="3.57" style="fill:#fff; opacity:.36;"/><circle cx="365.98" cy="37.18" r="2.53" style="fill:#fff;"/></g></g><g><g><circle cx="454.93" cy="22.81" r="3.57" style="fill:#fff; opacity:.36;"/><circle cx="454.93" cy="22.76" r="2.53" style="fill:#fff;"/></g><g><circle cx="454.93" cy="81.52" r="3.57" style="fill:#fff; opacity:.36;"/><circle cx="454.93" cy="81.47" r="2.53" style="fill:#fff;"/></g><g><circle cx="481.94" cy="53.89" r="3.57" style="fill:#fff; opacity:.36;"/><circle cx="481.94" cy="53.83" r="2.53" style="fill:#fff;"/></g><g><circle cx="426.98" cy="53.89" r="3.57" style="fill:#fff; opacity:.36;"/><circle cx="426.98" cy="53.83" r="2.53" style="fill:#fff;"/></g><g><circle cx="431.79" cy="66.93" r="3.57" style="fill:#fff; opacity:.36;"/><circle cx="431.79" cy="66.87" r="2.53" style="fill:#fff;"/></g><g><circle cx="441.26" cy="76.71" r="3.57" style="fill:#fff; opacity:.36;"/><circle cx="441.26" cy="76.65" r="2.53" style="fill:#fff;"/></g><g><circle cx="475.84" cy="70.49" r="3.57" style="fill:#fff; opacity:.36;"/><circle cx="475.84" cy="70.44" r="2.53" style="fill:#fff;"/></g><g><circle cx="486.66" cy="77.96" r="3.57" style="fill:#fff; opacity:.36;"/><circle cx="486.66" cy="77.9" r="2.53" style="fill:#fff;"/></g><g><circle cx="479.41" cy="39.82" r="3.57" style="fill:#fff; opacity:.36;"/><circle cx="479.41" cy="39.76" r="2.53" style="fill:#fff;"/></g><g><circle cx="470.07" cy="27.58" r="3.57" style="fill:#fff; opacity:.36;"/><circle cx="470.07" cy="27.52" r="2.53" style="fill:#fff;"/></g><g><circle cx="439.59" cy="26.38" r="3.57" style="fill:#fff; opacity:.36;"/><circle cx="439.59" cy="26.32" r="2.53" style="fill:#fff;"/></g><g><circle cx="430.55" cy="37.23" r="3.57" style="fill:#fff; opacity:.36;"/><circle cx="430.55" cy="37.18" r="2.53" style="fill:#fff;"/></g><g><circle cx="464.79" cy="64.34" r="3.57" style="fill:#fff; opacity:.36;"/><circle cx="464.79" cy="64.28" r="2.53" style="fill:#fff;"/></g></g><g><circle cx="501.49" cy="24.01" r="3.57" style="fill:#fff; opacity:.36;"/><circle cx="501.49" cy="23.96" r="2.53" style="fill:#fff;"/></g><g><circle cx="547.57" cy="23.96" r="3.57" style="fill:#fff; opacity:.36;"/><circle cx="547.57" cy="23.9" r="2.53" style="fill:#fff;"/></g><g><circle cx="524.39" cy="77.96" r="3.57" style="fill:#fff; opacity:.36;"/><circle cx="524.39" cy="77.9" r="2.53" style="fill:#fff;"/></g><g><circle cx="524.39" cy="52.8" r="3.57" style="fill:#fff; opacity:.36;"/><circle cx="524.39" cy="52.75" r="2.53" style="fill:#fff;"/></g><g><circle cx="524.39" cy="65.38" r="3.57" style="fill:#fff; opacity:.36;"/><circle cx="524.39" cy="65.32" r="2.53" style="fill:#fff;"/></g><g><circle cx="534.95" cy="43.39" r="3.57" style="fill:#fff; opacity:.36;"/><circle cx="534.95" cy="43.33" r="2.53" style="fill:#fff;"/></g><g><circle cx="513.83" cy="43.39" r="3.57" style="fill:#fff; opacity:.36;"/><circle cx="513.83" cy="43.33" r="2.53" style="fill:#fff;"/></g><g><circle cx="507.59" cy="33.62" r="3.57" style="fill:#fff; opacity:.36;"/><circle cx="507.59" cy="33.57" r="2.53" style="fill:#fff;"/></g><g><circle cx="542.08" cy="33.62" r="3.57" style="fill:#fff; opacity:.36;"/><circle cx="542.08" cy="33.57" r="2.53" style="fill:#fff;"/></g><g><circle cx="311.65" cy="111.43" r="3.57" style="fill:#fff; opacity:.36;"/><circle cx="311.65" cy="111.38" r="2.53" style="fill:#fff;"/></g><g><circle cx="295.96" cy="108.97" r="3.57" style="fill:#fff; opacity:.36;"/><circle cx="295.96" cy="108.92" r="2.53" style="fill:#fff;"/></g><g><circle cx="284.85" cy="119.47" r="3.57" style="fill:#fff; opacity:.36;"/><circle cx="284.85" cy="119.42" r="2.53" style="fill:#fff;"/></g><g><circle cx="290.95" cy="133.6" r="3.57" style="fill:#fff; opacity:.36;"/><circle cx="290.95" cy="133.54" r="2.53" style="fill:#fff;"/></g><g><circle cx="305.55" cy="139.18" r="3.57" style="fill:#fff; opacity:.36;"/><circle cx="305.55" cy="139.13" r="2.53" style="fill:#fff;"/></g><g><circle cx="318.52" cy="147.67" r="3.57" style="fill:#fff; opacity:.36;"/><circle cx="318.52" cy="147.61" r="2.53" style="fill:#fff;"/></g><g><circle cx="314.15" cy="162.5" r="3.57" style="fill:#fff; opacity:.36;"/><circle cx="314.15" cy="162.44" r="2.53" style="fill:#fff;"/></g><g><circle cx="299.32" cy="167.32" r="3.57" style="fill:#fff; opacity:.36;"/><circle cx="299.32" cy="167.26" r="2.53" style="fill:#fff;"/></g><g><circle cx="285.32" cy="159.91" r="3.57" style="fill:#fff; opacity:.36;"/><circle cx="285.32" cy="159.85" r="2.53" style="fill:#fff;"/></g><g><circle cx="342.97" cy="110.35" r="3.57" style="fill:#fff; opacity:.36;"/><circle cx="342.97" cy="110.29" r="2.53" style="fill:#fff;"/></g><g><circle cx="342.97" cy="128.69" r="3.57" style="fill:#fff; opacity:.36;"/><circle cx="342.97" cy="128.63" r="2.53" style="fill:#fff;"/></g><g><circle cx="342.97" cy="145.64" r="3.57" style="fill:#fff; opacity:.36;"/><circle cx="342.97" cy="145.58" r="2.53" style="fill:#fff;"/></g><g><circle cx="342.97" cy="162.95" r="3.57" style="fill:#fff; opacity:.36;"/><circle cx="342.97" cy="162.9" r="2.53" style="fill:#fff;"/></g><g><circle cx="382.51" cy="128.69" r="3.57" style="fill:#fff; opacity:.36;"/><circle cx="382.51" cy="128.63" r="2.53" style="fill:#fff;"/></g><g><circle cx="374.55" cy="144.1" r="3.57" style="fill:#fff; opacity:.36;"/><circle cx="374.55" cy="144.05" r="2.53" style="fill:#fff;"/></g><g><circle cx="359.84" cy="145.64" r="3.57" style="fill:#fff; opacity:.36;"/><circle cx="359.84" cy="145.58" r="2.53" style="fill:#fff;"/></g><g><circle cx="359.84" cy="110.35" r="3.57" style="fill:#fff; opacity:.36;"/><circle cx="359.84" cy="110.29" r="2.53" style="fill:#fff;"/></g><g><circle cx="374.55" cy="113.91" r="3.57" style="fill:#fff; opacity:.36;"/><circle cx="374.55" cy="113.86" r="2.53" style="fill:#fff;"/></g><g><circle cx="405.97" cy="113.8" r="3.57" style="fill:#fff; opacity:.36;"/><circle cx="405.97" cy="113.75" r="2.53" style="fill:#fff;"/></g><g><circle cx="405.97" cy="129.61" r="3.57" style="fill:#fff; opacity:.36;"/><circle cx="405.97" cy="129.56" r="2.53" style="fill:#fff;"/></g><g><circle cx="405.97" cy="145.58" r="3.57" style="fill:#fff; opacity:.36;"/><circle cx="405.97" cy="145.53" r="2.53" style="fill:#fff;"/></g><g><circle cx="405.97" cy="161.56" r="3.57" style="fill:#fff; opacity:.36;"/><circle cx="405.97" cy="161.5" r="2.53" style="fill:#fff;"/></g><g><circle cx="432.01" cy="111.21" r="3.57" style="fill:#fff; opacity:.36;"/><circle cx="432.01" cy="111.16" r="2.53" style="fill:#fff;"/></g><g><circle cx="477.32" cy="164.04" r="3.57" style="fill:#fff; opacity:.36;"/><circle cx="477.32" cy="163.98" r="2.53" style="fill:#fff;"/></g><g><circle cx="477.32" cy="111.32" r="3.57" style="fill:#fff; opacity:.36;"/><circle cx="477.32" cy="111.27" r="2.53" style="fill:#fff;"/></g><g><circle cx="432.01" cy="164.04" r="3.57" style="fill:#fff; opacity:.36;"/><circle cx="432.01" cy="163.98" r="2.53" style="fill:#fff;"/></g><g><circle cx="432.01" cy="137.62" r="3.57" style="fill:#fff; opacity:.36;"/><circle cx="432.01" cy="137.57" r="2.53" style="fill:#fff;"/></g><g><circle cx="432.01" cy="123.82" r="3.57" style="fill:#fff; opacity:.36;"/><circle cx="432.01" cy="123.76" r="2.53" style="fill:#fff;"/></g><g><circle cx="432.01" cy="150.83" r="3.57" style="fill:#fff; opacity:.36;"/><circle cx="432.01" cy="150.78" r="2.53" style="fill:#fff;"/></g><g><circle cx="477.32" cy="123.82" r="3.57" style="fill:#fff; opacity:.36;"/><circle cx="477.32" cy="123.76" r="2.53" style="fill:#fff;"/></g><g><circle cx="477.32" cy="137.57" r="3.57" style="fill:#fff; opacity:.36;"/><circle cx="477.32" cy="137.51" r="2.53" style="fill:#fff;"/></g><g><circle cx="477.32" cy="150.83" r="3.57" style="fill:#fff; opacity:.36;"/><circle cx="477.32" cy="150.78" r="2.53" style="fill:#fff;"/></g><g><circle cx="454.66" cy="137.62" r="3.57" style="fill:#fff; opacity:.36;"/><circle cx="454.66" cy="137.57" r="2.53" style="fill:#fff;"/></g><g><circle cx="465.16" cy="150.83" r="3.57" style="fill:#fff; opacity:.36;"/><circle cx="465.16" cy="150.78" r="2.53" style="fill:#fff;"/></g><g><circle cx="445.21" cy="125.12" r="3.57" style="fill:#fff; opacity:.36;"/><circle cx="445.21" cy="125.07" r="2.53" style="fill:#fff;"/></g></g><path d="M454.31,251.14h-68.7c-4.08,0-7.38,4.88-7.38,10.9v34.29c0-8.09,4.44-14.65,9.92-14.65h63.25c5.48,0,9.92,6.56,9.92,14.65v81.8c0,8.09-4.44,14.65-9.92,14.65h-63.25c-5.48,0-9.92-6.56-9.92-14.65v34.05c0,6.02,3.3,10.9,7.38,10.9h68.7c4.08,0,7.38-4.88,7.38-10.9v-150.14c0-6.02-3.3-10.9-7.38-10.9Z" style="fill:#2c0d2f; opacity:.22;"/></g></svg>