<?xml version="1.0" encoding="UTF-8"?><svg id="Layer_2" xmlns="http://www.w3.org/2000/svg" viewBox="0 0 40.25 99.6"><g id="Layer_23"><g><path d="M0,0H25c8.42,0,15.25,6.83,15.25,15.25V84.35c0,8.42-6.83,15.25-15.25,15.25H0V0H0Z" style="fill:#fed629;"/><path d="M25,75.61H0v23.99H25c8.42,0,15.25-6.83,15.25-15.25v-23.99c0,8.42-6.83,15.25-15.25,15.25Z" style="fill:#fcc12b;"/><rect x="4.73" y="32.36" width="25.09" height="25.09" rx="7.98" ry="7.98" style="fill:#c68209; opacity:.54;"/><path d="M25,90.86H0v8.74H25c8.42,0,15.25-6.83,15.25-15.25v-8.74c0,8.42-6.83,15.25-15.25,15.25Z" style="fill:#c68209; opacity:.54;"/></g><g><path d="M10.69,27.54h13.16v14.09c0,2.67-2.17,4.85-4.85,4.85h-3.47c-2.67,0-4.85-2.17-4.85-4.85v-14.09h0Z" style="fill:#fcc12b;"/><path d="M17.27,45.62c-3.63,0-6.58-.44-6.58-.98v.85c0,.54,2.95,.98,6.58,.98s6.58-.44,6.58-.98v-.85c0,.54-2.95,.98-6.58,.98Z" style="fill:#c68209; opacity:.54;"/><path d="M10.69,29.81c0,.54,2.95,.98,6.58,.98s6.58-.44,6.58-.98v-2.27H10.69v2.27Z" style="fill:#c68209; opacity:.54;"/></g><g><circle cx="17.27" cy="39.54" r="16.92" style="fill:#d75745;"/><path d="M26.61,25.44c2.71,3,4.37,6.96,4.37,11.32,0,9.34-7.57,16.92-16.92,16.92-3.45,0-6.66-1.04-9.34-2.82,3.1,3.43,7.56,5.59,12.54,5.59,9.34,0,16.92-7.57,16.92-16.92,0-5.89-3.01-11.07-7.58-14.1Z" style="fill:#a3291c;"/><circle cx="11.74" cy="32.18" r="4.17" style="fill:#fff;"/></g></g></svg>