<?xml version="1.0" encoding="UTF-8"?><svg id="Layer_2" xmlns="http://www.w3.org/2000/svg" viewBox="0 0 40.25 197.43"><g id="Layer_23"><g><path d="M0,97.83H25c8.42,0,15.25,6.83,15.25,15.25v69.1c0,8.42-6.83,15.25-15.25,15.25H0V97.83H0Z" style="fill:#fed629;"/><path d="M25,173.44H0v23.99H25c8.42,0,15.25-6.83,15.25-15.25v-23.99c0,8.42-6.83,15.25-15.25,15.25Z" style="fill:#fcc12b;"/><rect x="4.73" y="106.97" width="25.09" height="25.09" rx="7.98" ry="7.98" style="fill:#c68209; opacity:.54;"/><path d="M25,188.69H0v8.74H25c8.42,0,15.25-6.83,15.25-15.25v-8.74c0,8.42-6.83,15.25-15.25,15.25Z" style="fill:#c68209; opacity:.54;"/></g><g><path d="M10.69,32.18h13.16V120.52c0,2.67-2.17,4.85-4.85,4.85h-3.47c-2.67,0-4.85-2.17-4.85-4.85V32.18h0Z" style="fill:#fcc12b;"/><path d="M17.27,121.18c-3.63,0-6.58-2.17-6.58-4.85v4.19c0,2.68,2.95,4.85,6.58,4.85s6.58-2.17,6.58-4.85v-4.19c0,2.68-2.95,4.85-6.58,4.85Z" style="fill:#c68209; opacity:.54;"/><path d="M10.69,43.37c0,2.68,2.95,4.85,6.58,4.85s6.58-2.17,6.58-4.85v-11.19H10.69v11.19Z" style="fill:#c68209; opacity:.54;"/></g><g><circle cx="17.27" cy="16.92" r="16.92" style="fill:#d75745;"/><path d="M26.61,2.82c2.71,3,4.37,6.96,4.37,11.32,0,9.34-7.57,16.92-16.92,16.92-3.45,0-6.66-1.04-9.34-2.82,3.1,3.43,7.56,5.59,12.54,5.59,9.34,0,16.92-7.57,16.92-16.92,0-5.89-3.01-11.07-7.58-14.1Z" style="fill:#a3291c;"/><circle cx="11.74" cy="9.56" r="4.17" style="fill:#fff;"/></g></g></svg>